<?xml version="1.0" encoding="utf-8"?>
<!-- Generator: Adobe Illustrator 20.1.0, SVG Export Plug-In . SVG Version: 6.00 Build 0)  -->
<svg version="1.1" id="Layer_1" xmlns="http://www.w3.org/2000/svg" xmlns:xlink="http://www.w3.org/1999/xlink" x="0px" y="0px"
	 viewBox="0 0 380.6 215.7" enable-background="new 0 0 380.6 215.7" xml:space="preserve">
<ellipse opacity="0.45" fill="#E6E6E6" enable-background="new    " cx="211.5" cy="191.5" rx="169.1" ry="24.2"/>
<polygon fill="#C9C9C9" points="197.4,121.5 186.4,178.8 240.1,178.8 229.1,121.5 "/>
<path fill="#E6E6E6" d="M111.4,0h209.5l0,0v136.3l0,0H117.6c-3.5,0-6.3-2.8-6.3-6.3V0H111.4z"/>
<rect x="179.1" y="173.2" fill="#E6E6E6" width="68" height="11.6"/>
<rect x="111.4" opacity="0.56" fill="#FFFFFF" enable-background="new    " width="209.5" height="120.7"/>
<rect x="111.4" opacity="0.2" fill="#A5A5A5" enable-background="new    " width="209.5" height="24.2"/>
<circle fill="#24285B" cx="127.5" cy="12.3" r="4.4"/>
<circle fill="#0871B8" cx="140.6" cy="12.3" r="4.4"/>
<circle fill="#FFD200" cx="152.9" cy="12.3" r="4.4"/>
<rect x="268.7" y="46.6" fill="#0871B8" width="41.8" height="48.4"/>
<rect x="268.7" y="46.6" opacity="0.46" fill="#FFFFFF" enable-background="new    " width="41.8" height="48.4"/>
<rect x="274.5" y="53.3" fill="#0871B8" width="30.1" height="34.5"/>
<rect x="166.6" y="46.6" fill="#0871B8" width="41.8" height="48.4"/>
<rect x="166.6" y="46.6" opacity="0.46" fill="#FFFFFF" enable-background="new    " width="41.8" height="48.4"/>
<rect x="172.4" y="53.3" fill="#0871B8" width="30.1" height="34.5"/>
<rect x="220" y="57.6" fill="#A5A5A5" width="42.8" height="10.1"/>
<rect x="219.6" y="73.2" opacity="0.44" fill="#A5A5A5" enable-background="new    " width="43.6" height="10.3"/>
<path opacity="8.000000e-02" enable-background="new    " d="M105,44.9c0,0,24.2,2.3,30.2,33.8l19.4-26c0,0,11.3-1.4,6.3,9
	c-3.3,6.8-4.1,26.5-12.7,39.8c-17.1,26.3-28.5,55.9-33.6,86.9l-0.4,2.6l-11.7,0.5l3.2-96.1L105,44.9z"/>
<path fill="#0871B8" d="M57.1,56.9C50,72.3,28.7,102.3,8.2,105.7v10.8c0,0,36.8-1.9,69.1-34.2c13.5-13.5,13.2-22.8,8.4-29.1
	C78.1,43.3,62.4,45.5,57.1,56.9z"/>
<path opacity="8.000000e-02" enable-background="new    " d="M57.1,56.9C50,72.3,28.7,102.3,8.2,105.7v10.8c0,0,36.8-1.9,69.1-34.2
	c13.5-13.5,13.2-22.8,8.4-29.1C78.1,43.3,62.4,45.5,57.1,56.9z"/>
<rect x="119.2" y="57.8" fill="#A5A5A5" width="42.8" height="10.1"/>
<rect x="118.8" y="73.4" opacity="0.44" fill="#A5A5A5" enable-background="new    " width="43.6" height="10.3"/>
<polygon fill="#F4A28C" points="74.2,31.8 78,43.2 68.9,49 65.6,29.1 "/>
<path fill="#F4A28C" d="M68.4,17.3c2.8-2.8,7.3-2.7,10.1,0.1c0.7,0.7,1.2,1.6,1.6,2.5c2,5.3,3.9,13.1-2.3,14.4
	c-9.5,2-12.6-10.2-12.6-10.2C65.6,21.6,66.7,19.3,68.4,17.3z"/>
<path fill="#F4A28C" d="M68.4,25.1c0,0-2.1-1.7-3,0.7s2.7,3.6,3.8,2.4S68.4,25.1,68.4,25.1z"/>
<path fill="#0871B8" d="M58.3,54.7c2.8-6.2,8.1-10.8,14.6-12.7c12.4-3.7,35.1,0.3,42,11.9c9.5,15.8-4.4,66-4.4,66l-41.4,3.3
	C69,123.1,46.1,81.9,58.3,54.7z"/>
<polygon fill="#24285B" points="110.5,119.9 105,191.2 96.4,191.2 88.7,135.8 69.6,123.1 "/>
<polygon fill="#24285B" points="69.6,123.1 57.7,191.2 66.9,191.2 86.9,134.6 "/>
<path opacity="8.000000e-02" enable-background="new    " d="M76.4,40.9c0,0-19.4,62.5,36.6,66.7l-2.6,12.4L69,123.2
	c0,0-16.2-28.2-14-55.2c0,0,0.3-15.9,11.6-23C69.5,42.9,72.9,41.5,76.4,40.9z"/>
<path fill="#0871B8" d="M59.9,191.1l-5.6,4.1c-0.5,0.4-0.7,1.2-0.3,1.7c0.2,0.3,0.6,0.5,1,0.5h9.3c0.7,0,1.2-0.6,1.2-1.2v-5.1H59.9z
	"/>
<path fill="#0871B8" d="M103.9,191.1l5.2,4.1c0.5,0.4,0.6,1.2,0.2,1.7c-0.2,0.3-0.6,0.5-1,0.5h-6.6c-2,0-3.6-1.6-3.6-3.5l0,0v-2.8
	H103.9L103.9,191.1z"/>
<path fill="#0871B8" d="M93.4,41.6c-4.2,6.8-4.2,15.4,0,22.1C97.9,71.3,111,86.2,120,96c3.5,3.9,9.5,4.2,13.4,0.7
	c0.8-0.7,1.4-1.5,1.9-2.5l19.3-34.1l-6.6-4.2l-17.7,26C130.4,82,118.3,42.1,93.4,41.6z"/>
<path opacity="0.2" fill="#FFFFFF" enable-background="new    " d="M93.4,41.6c-4.2,6.8-4.2,15.4,0,22.1C97.9,71.3,111,86.2,120,96
	c3.5,3.9,9.5,4.2,13.4,0.7c0.8-0.7,1.4-1.5,1.9-2.5l19.3-34.1l-6.6-4.2l-17.7,26C130.4,82,118.3,42.1,93.4,41.6z"/>
<path fill="#F4A28C" d="M152.4,58.7c0,0,11-4,6.5-10.2S148.1,56,148.1,56L152.4,58.7z"/>
<path fill="#24285B" d="M66.3,32.4L63,24.2c-0.7-1.7-0.6-3.7,0.1-5.3c1.3-2.9,3.9-7.5,7.9-10c6.2-4.1,12.2-4.1,11.5,1.3
	s1.9-0.3,4,3.6s0.8,5.1-2.2,5.5s-9,0.2-11.1,4.2S73.7,32.2,66.3,32.4z"/>
<path fill="#F4A28C" d="M8.2,105.7c0,0-5.7-2.4-7.9,2.9s7.9,7.9,7.9,7.9V105.7z"/>
<path fill="#FFD200" d="M183.2,70.1l2.4-1.7c0.5-0.4,1.1-0.6,1.8-0.6h6.1c1.3,0,2.6,0.6,3.3,1.7c1,1.4,1.9,3.6,0.4,5.9h-19.9v-2
	c0-0.8,0.6-1.6,1.5-1.8C180.2,71.4,182.2,70.8,183.2,70.1z"/>
<path opacity="3.000000e-02" enable-background="new    " d="M184.3,74.3v-1.7l0,0c0-0.5,0.4-0.9,0.9-0.9h8.8c0.7,0,1.3,0.5,1.4,1.2
	c0,0.3,0,0.7-0.2,1l-1,0.4H184.3z"/>
<path fill="#0871B8" d="M177.2,74.3h20.5c0.1,0,0.2,0.1,0.2,0.2v0.6c0,0.1-0.1,0.2-0.2,0.2h-20.5c-0.1,0-0.2-0.1-0.2-0.2v-0.6
	C177,74.4,177.1,74.3,177.2,74.3z"/>
<path opacity="0.46" fill="#FFFFFF" enable-background="new    " d="M177.2,74.3h20.5c0.1,0,0.2,0.1,0.2,0.2v0.6
	c0,0.1-0.1,0.2-0.2,0.2h-20.5c-0.1,0-0.2-0.1-0.2-0.2v-0.6C177,74.4,177.1,74.3,177.2,74.3z"/>
<ellipse fill="#24285B" cx="195.7" cy="75.2" rx="1.8" ry="1.7"/>
<ellipse fill="#FFFFFF" cx="195.7" cy="75.2" rx="1.1" ry="1"/>
<path fill="#24285B" d="M182.9,75.2c0,1-0.8,1.7-1.8,1.7s-1.8-0.8-1.8-1.7s0.8-1.7,1.8-1.7l0,0C182.1,73.5,182.9,74.3,182.9,75.2
	L182.9,75.2z"/>
<ellipse fill="#FFFFFF" cx="181.1" cy="75.2" rx="1.1" ry="1"/>
<path fill="#24285B" d="M186.1,69l-1.8,1.6c-0.1,0.1-0.1,0.3,0,0.4s0.1,0.1,0.2,0.1h9.9c0.3,0,0.6-0.2,0.6-0.5c0-0.1,0-0.1,0-0.2
	l-0.4-1c-0.2-0.5-0.6-0.8-1.1-0.8H187C186.7,68.6,186.3,68.8,186.1,69z"/>
<path fill="#24285B" d="M195.5,68.4c0,0-0.5,1.9,2.2,2.9C197.7,71.3,197.2,69.2,195.5,68.4z"/>
<path opacity="3.000000e-02" enable-background="new    " d="M180.9,72.6c-0.1,0-0.2-0.1-0.2-0.2s0.1-0.1,0.1-0.2
	c0.5-0.1,0.9-0.1,1.4,0.1c0.4,0.1,0.8,0.4,1.1,0.7c0.2,0.2,0.1,0.4,0,0.6c-0.1,0-0.1,0.1-0.2,0.1l0,0c-0.2,0-0.4-0.1-0.5-0.2
	C182.5,73.2,182,72.7,180.9,72.6z"/>
<polygon fill="#FFD200" points="189.4,68.4 189.2,71.6 191,71.6 190.4,68.4 "/>
<rect x="184.3" y="73.7" fill="#24285B" width="10.7" height="0.2"/>
<path fill="#FFFFFF" d="M186.5,71.7h0.8c0.1,0,0.2,0.1,0.2,0.2V72c0,0.1-0.1,0.2-0.2,0.2h-0.8c-0.1,0-0.2-0.1-0.2-0.2v-0.1
	C186.2,71.8,186.4,71.7,186.5,71.7z"/>
<path fill="#FFFFFF" d="M193.6,71.7h0.8c0.1,0,0.2,0.1,0.2,0.2V72c0,0.1-0.1,0.2-0.2,0.2h-0.8c-0.1,0-0.2-0.1-0.2-0.2v-0.1
	C193.4,71.8,193.5,71.7,193.6,71.7z"/>
<polygon opacity="0.16" fill="#BED9F4" enable-background="new    " points="192.1,68.6 192.6,71.1 194,71.1 193.2,68.6 "/>
<polygon opacity="0.16" fill="#BED9F4" enable-background="new    " points="187,68.6 187.6,71.1 188.9,71.1 188.1,68.6 "/>
<path fill="#0871B8" d="M184.6,70.3h0.9c0.2,0,0.4,0.2,0.4,0.4v0.1c0,0.2-0.2,0.4-0.4,0.4h-0.9c-0.2,0-0.4-0.2-0.4-0.4v-0.1
	C184.2,70.4,184.3,70.3,184.6,70.3z"/>
<path opacity="0.46" fill="#FFFFFF" enable-background="new    " d="M184.6,70.3h0.9c0.2,0,0.4,0.2,0.4,0.4v0.1
	c0,0.2-0.2,0.4-0.4,0.4h-0.9c-0.2,0-0.4-0.2-0.4-0.4v-0.1C184.2,70.4,184.3,70.3,184.6,70.3z"/>
<path fill="#FFFFFF" d="M177.7,72.4h1.4c0.1,0,0.2,0.1,0.2,0.2v0.1l-0.4,0.6c-0.1,0.2-0.3,0.2-0.5,0.2h-1.1v-0.1
	C177.3,73,177.5,72.6,177.7,72.4L177.7,72.4z"/>
<g id="XMLID_163_">
	<g id="XMLID_190_">
		<g id="XMLID_10_">
			<path id="XMLID_18_" fill="#464655" d="M289.6,61.3c-5.2,0-9.5,4.2-9.5,9.5c0,5.2,4.2,9.5,9.5,9.5c5.2,0,9.5-4.2,9.5-9.5
				S294.8,61.3,289.6,61.3z M289.6,63.6c3.2,0,5.8,2.1,6.8,4.9h-3.3h-6.9h-3.3C283.7,65.7,286.4,63.6,289.6,63.6z M282.4,70.7h2.8
				l0.3,1.6c0,0.2,0.1,0.3,0.2,0.5l-2,2C282.9,73.7,282.4,72.3,282.4,70.7z M285.3,76.4l2.1-2.1c0.3,0.1,0.6,0.1,0.9,0.1h2.7
				c0.3,0,0.6,0,0.9-0.1l2.1,2.1c-1.2,0.9-2.7,1.4-4.3,1.4S286.5,77.3,285.3,76.4z M295.4,74.8l-2-2c0.1-0.2,0.1-0.3,0.2-0.5
				l0.3-1.6h2.8C296.7,72.3,296.2,73.7,295.4,74.8z"/>
			<g id="XMLID_15_" opacity="0.1">
				<path id="XMLID_4_" d="M288.8,74.5h1c-0.3,0-0.6,0-0.9-0.1L288.8,74.5z"/>
				<path id="XMLID_3_" d="M281.7,70.7c0-5,3.8-9,8.7-9.4c-0.3,0-0.5,0-0.8,0c-5.2,0-9.5,4.2-9.5,9.5c0,5.2,4.2,9.5,9.5,9.5
					c0.3,0,0.5,0,0.8,0C285.5,79.8,281.7,75.7,281.7,70.7z"/>
			</g>
			<circle id="XMLID_2_" fill="#AAB1C6" cx="289.6" cy="71.5" r="1.5"/>
			<path id="XMLID_1_" opacity="0.1" enable-background="new    " d="M289,71.5c0-0.7,0.4-1.2,1-1.4c-0.1,0-0.3-0.1-0.5-0.1
				c-0.8,0-1.5,0.7-1.5,1.5s0.7,1.5,1.5,1.5c0.2,0,0.3,0,0.5-0.1C289.5,72.7,289,72.2,289,71.5z"/>
		</g>
	</g>
</g>
</svg>
