<?xml version="1.0" encoding="utf-8"?>
<!-- Generator: Adobe Illustrator 20.1.0, SVG Export Plug-In . SVG Version: 6.00 Build 0)  -->
<svg version="1.1" id="Layer_1" xmlns="http://www.w3.org/2000/svg" xmlns:xlink="http://www.w3.org/1999/xlink" x="0px" y="0px"
	 viewBox="0 0 314.4 241" enable-background="new 0 0 314.4 241" xml:space="preserve">
<path opacity="0.3" fill="#E6E6E6" enable-background="new    " d="M10.3,83.5c0,0-55.5,125.3,90.6,127
	c146,1.8,212.8-17.5,213.5-81.2C315.1,65.6,262.5,6,170.8,5.4S29.5,28.7,10.3,83.5z"/>
<path fill="#0871B8" d="M225.9,39.8h-91.6l1.3,89.8h125.8V75.2C261.3,55.7,245.5,39.8,225.9,39.8z"/>
<path fill="#24285B" d="M134.3,39.8L134.3,39.8c19.6,0,35.4,15.9,35.4,35.4v54.4l0,0H98.9l0,0V75.2C98.9,55.7,114.7,39.8,134.3,39.8
	z"/>
<path fill="#0871B8" d="M134.3,219.5L134.3,219.5c-19.6,0-35.4-15.9-35.4-35.4l0,0v-54.4l0,0h70.8l0,0v54.4
	C169.7,203.6,153.8,219.5,134.3,219.5L134.3,219.5z"/>
<path opacity="9.000000e-02" enable-background="new    " d="M134.3,219.5L134.3,219.5c-19.6,0-35.4-15.9-35.4-35.4l0,0v-54.4l0,0
	h70.8l0,0v54.4C169.7,203.6,153.8,219.5,134.3,219.5L134.3,219.5z"/>
<path fill="#0871B8" d="M200.4,0L200.4,0c1.1,0,2,0.9,2,2v74.8l0,0h-4.2l0,0V2.1C198.2,0.9,199.1,0,200.4,0L200.4,0z"/>
<path opacity="0.44" fill="#FFFFFF" enable-background="new    " d="M200.4,0L200.4,0c1.1,0,2,0.9,2,2v74.8l0,0h-4.2l0,0V2.1
	C198.2,0.9,199.1,0,200.4,0L200.4,0z"/>
<circle fill="#FFD200" cx="200.5" cy="76.8" r="7.9"/>
<polygon fill="#FFD200" points="202.4,2.1 221.9,2.1 221.9,9.7 202.4,14.6 "/>
<rect x="183.1" y="129.6" fill="#24285B" width="34.2" height="12.4"/>
<rect x="191.7" y="142.1" fill="#0871B8" width="16.6" height="98.9"/>
<rect x="191.7" y="142.1" opacity="0.44" fill="#FFFFFF" enable-background="new    " width="16.6" height="98.9"/>
<polygon opacity="9.000000e-02" enable-background="new    " points="191.7,142.1 191.7,175.2 208.4,164.6 208.4,142.1 "/>
<ellipse fill="#FFD200" cx="49.3" cy="41.2" rx="36.8" ry="35"/>
<polygon fill="#FFD200" points="66.7,67 89.8,78.4 72.9,57 "/>
<path fill="#FFFFFF" d="M67,40.8c2.7-1.5,4.2-4.5,4-7.5c-0.2-3.3-2.6-6.1-5.8-6.8c-2.8-0.7-8.5-0.6-9.7,2.7c-1.6,4.2,3.2,7,3.2,11
	c0,3.8-3,6.9-6.8,6.9c-0.4,0-0.7,0-1-0.1c-2.3-0.5-4.5-1.6-6.2-3.2c-1.4-1.2-2.6-3.1-4.5-3.6s-3.7,1.1-4.9,2.3
	c-1.6,1.3-2.6,3.1-3,5.1c-0.7,4.2,2.6,6.6,6.4,7.2c2.3,0.3,4.5,0.2,6.8-0.3c1.7-0.4,3.7-1,4.7-2.5c1.1-1.6,0.3-3.4-0.7-4.8
	c-1.2-1.7-2.6-3.3-4.1-4.7c-1.6-1.4-3.3-2.7-5.1-3.8c-1.9-1-3.8-1.9-5.7-2.8c-4.5-2.1-1.6-8.8,1-11.4c1.5-1.5,3.7-2.9,5.8-2.6
	c2.4,0.3,2.8,2.7,2.3,4.7c-1.2,4.3-5.4,6.9-9.4,8.3c-8,2.8-6.7,13.7-2.6,19.2c5,6.7,14.2,8.2,21.7,5.1c3.3-1.4,7.2-4.1,5.6-8.2
	c-0.8-1.9-2-3.7-3.3-5.3c-1.2-1.6-2.7-3-4.4-4.1c-2.9-1.7-6.8-1.9-9.6,0.1c-3.7,2.7-2.1,7-2.6,10.7c-0.2,1.6-1.2,4-3,4.2
	c-1.2,0.1-2.3-0.8-3.1-1.6c-0.9-0.8-1.7-1.6-2.6-2.5c-1.5-1.7-2.9-3.6-4.1-5.6s-2.6-4.5-2.5-6.9c0.2-4.5,5.9-7.2,9.5-8.6
	c4.9-1.9,9.7-1.3,14.6-0.1c2.4,0.6,4.8,1.2,7.1,1.7c2.1,0.4,4.5,0.9,6.5,0c3.2-1.4,4.6-5.7,4.9-8.9c0.3-1.7-0.1-3.4-1.1-4.7
	c-1.2-1.5-3.1-1.8-5-1.8c-4.1-0.2-8.9-0.1-11.6,3.5c-2.4,3.2-0.9,6.6,1,9.5c1,1.6,2.2,3.3,2.3,5.3c0.1,2.1-0.9,4.2-2.7,5.3
	c-1.3,0.9-3.3,1-4.2,2.5s0.1,3.8,0.8,5.3c1.6,3.5,4.3,6.4,7.6,8.2c3.6,2,8.3,3.1,11.9,0.5c3.4-2.5,5.8-6.7,7-10.7
	c0.6-2,0.6-4.1-0.9-5.6c-1.6-1.5-3.5-2.6-5.5-3.5c-3.2-1.4-7.8-1.8-10.1,1.5c-0.9,1.4-1.2,3.1-0.7,4.6c0.6,1.6,2.1,2.7,3.7,2.9
	c4.1,0.9,9.1,1.3,13-0.4c3.1-1.4,5.7-4.6,5.3-8.1c-0.1-1-1.6-1-1.5,0c0.4,4.1-3.3,6.9-7,7.5c-2.2,0.3-4.4,0.3-6.6,0
	c-1.7-0.2-4.5-0.2-5.4-2c-0.8-1.8-0.1-3.9,1.7-4.8c1.8-0.9,3.8-1,5.7-0.2c2,0.7,3.8,1.7,5.5,3c1.1,0.7,1.7,1.9,1.6,3.2
	c-0.1,1.2-0.5,2.3-1,3.4c-1.4,3.6-4.3,8.5-8.4,9.2c-3.8,0.7-8.1-1.6-10.8-4.2c-1.3-1.2-2.4-2.6-3.3-4.2c-0.4-0.8-0.8-1.6-1.1-2.5
	c-0.4-1.1-0.7-2.3,0.5-3c1.4-0.9,2.9-1.1,4.2-2.4c1.1-1.1,1.8-2.5,2.1-4.1c0.6-3.4-1.5-6-3-8.7c-0.9-1.4-1.7-3-1.4-4.8
	c0.5-1.8,1.8-3.4,3.6-4.1c2.2-0.8,4.5-1.1,6.9-0.8c2,0,4.4,0,5.2,2.3c0.4,1.7,0.4,3.4-0.3,5.1c-0.4,1.8-1.3,3.4-2.7,4.6
	c-1.8,1.5-4.6,0.8-6.7,0.4c-2.1-0.4-4.2-1-6.3-1.5c-4-1-8.1-1.8-12.2-1.2c-3.9,0.7-7.5,2.3-10.6,4.7c-2.8,2.1-4.5,5-3.7,8.6
	s3.2,7.2,5.5,10c1.3,1.6,2.7,3.1,4.3,4.4c1.1,1.1,2.6,1.7,4.2,1.6c2.9-0.5,4.2-4,4.2-6.6c0-2-0.4-4.1,0.2-6c0.5-1.7,1.9-3,3.6-3.4
	c3.8-1,7.1,1.1,9.5,3.9c1.3,1.5,2.4,3.1,3.3,4.8c1.2,2.3,0.3,4.2-1.7,5.6C49,60.6,39.2,60,33.8,54.4c-2.5-2.6-4-6.1-4.2-9.8
	c-0.1-1.8,0.2-3.7,1-5.3c1-2,2.6-2.7,4.6-3.4c3.4-1.1,6.3-3.4,8.3-6.4c1.4-2.2,2.4-5.7,0.4-7.9c-2.4-2.6-6.4-1.1-8.7,0.7
	c-2.5,2-4.2,4.9-4.7,8.1c-0.2,1.6-0.3,3.6,0.7,5c1,1.4,2.5,1.8,4,2.4c3.7,1.5,7.1,3.8,9.9,6.7c1.5,1.3,2.7,2.9,3.6,4.6
	c1.1,2.4-2.3,3.3-3.9,3.7c-3.3,0.8-10.1,1.1-11.2-3.2c-0.6-2.2,0.6-4.3,2.1-5.8c0.7-0.8,1.5-1.4,2.4-1.9c1.3-0.8,2.3-0.1,3.2,0.9
	c2.6,2.6,5.6,5.1,9.3,5.6c4.6,0.5,8.8-2.8,9.3-7.4c0.2-1.5-0.1-3.1-0.7-4.5c-0.9-1.8-2.6-3.5-2.7-5.6c-0.1-2.4,2-3,4-3.2
	c3.5-0.5,7.6,0.6,8.6,4.4c0.8,2.9-0.5,5.9-3,7.3C65.5,39.9,66.2,41.2,67,40.8L67,40.8z"/>
</svg>
