<svg id="Camada_1" data-name="Camada 1" xmlns="http://www.w3.org/2000/svg" viewBox="0 0 911.64 1023.34"><path d="M778.84,519.08A398.85,398.85,0,0,0,428.15,1.76C208.91-14.46,17.32,150.74,1.1,370s149,410.92,368.21,427.14A394.07,394.07,0,0,0,602.51,742l218,263.15a51.78,51.78,0,0,0,89.23-16.83l1.85-24.91a51.67,51.67,0,0,0-11-24.66L684.26,677.67A397.83,397.83,0,0,0,778.84,519.08ZM635.7,574.43a296.92,296.92,0,0,1-106.44,89A292.64,292.64,0,0,1,377,693.38c-162-12-284.12-153.6-272.13-315.7S258.47,93.54,420.48,105.53a295,295,0,0,1,183.85,83,297.34,297.34,0,0,1,43.18,53.07A293.52,293.52,0,0,1,635.7,574.43Z" transform="translate(0 -0.66)" style="fill:#fff"/><path d="M601,305.55h81a297.21,297.21,0,0,0-28-62.41,397.76,397.76,0,0,0-59.59,44.72C587.48,294.12,591.71,305.55,601,305.55Z" transform="translate(0 -0.66)" style="fill:none"/><path d="M491.11,446.48a140.92,140.92,0,0,0-140.9,140.37c0,.12,0,.22,0,.32a20.27,20.27,0,0,1-20.13,20.36H249.54A20.14,20.14,0,0,1,229.4,587.4V506.87a20.14,20.14,0,0,1,20.14-20.13l2.33-50C253.36,405,269.24,375.13,296,358c40.6-26,103.53-42.62,170.38-49.19L285.57,199l20.64-34L527.38,299.27a441.29,441.29,0,0,1,103.84-89A292.93,292.93,0,0,0,497.7,115.56C344.26,62.21,175.94,143.69,122.59,297.14S150.67,619,304.11,672.32c121.22,42.15,251.61.2,327.42-94.87C626.41,504.28,565.58,446.48,491.11,446.48Z" transform="translate(0 -0.66)" style="fill:none"/><path d="M682,305.55a297.21,297.21,0,0,0-28-62.41A295.06,295.06,0,0,0,497.7,115.56C344.26,62.21,175.94,143.69,122.59,297.14S150.67,619,304.11,672.32c121.22,42.15,251.61.2,327.42-94.87A293.94,293.94,0,0,0,682,305.55Z" transform="translate(0 -0.66)" style="fill:none"/><path d="M682,305.55H601A10.11,10.11,0,0,1,594.19,288a397.55,397.55,0,0,1,59.75-44.87,293.73,293.73,0,0,0-22.72-32.86,441.29,441.29,0,0,0-103.84,89L306.21,165l-20.64,34L466.4,308.79C399.62,315.35,336.75,332,296.15,357.9,269.32,375,253.36,405,251.87,436.75l-2.33,50a20.14,20.14,0,0,0-20.14,20.13V587.4a20.14,20.14,0,0,0,20.14,20.13h80.52a20.41,20.41,0,0,0,20-18.82l.32-5.18c4.5-71.65,60-132.28,131.62-136.77A140.82,140.82,0,0,1,631.53,577.45,293.94,293.94,0,0,0,682,305.55Z" transform="translate(0 -0.66)" style="fill:#fff"/><path d="M682,305.55a297.21,297.21,0,0,0-28-62.41A295.06,295.06,0,0,0,497.7,115.56C344.26,62.21,175.94,143.69,122.59,297.14S150.67,619,304.11,672.32A292.57,292.57,0,0,0,459,682.69a100.79,100.79,0,1,1,125.79-58.58A293.76,293.76,0,0,0,682,305.55Z" transform="translate(0 -0.66)" style="fill:none"/><circle cx="491.11" cy="586.73" r="60.39" style="fill:none"/><path d="M491.11,486.74a100.61,100.61,0,0,0-32.16,196,297,297,0,0,0,125.79-58.58,100.45,100.45,0,0,0-93.63-137.37Zm0,161a60.4,60.4,0,1,1,60.4-60.39A60.47,60.47,0,0,1,491.11,647.79Z" transform="translate(0 -0.66)" style="fill:#fff"/></svg>