<?xml version="1.0" encoding="utf-8"?>
<!-- Generator: Adobe Illustrator 20.1.0, SVG Export Plug-In . SVG Version: 6.00 Build 0)  -->
<svg version="1.1" id="Layer_1" xmlns="http://www.w3.org/2000/svg" xmlns:xlink="http://www.w3.org/1999/xlink" x="0px" y="0px"
	 viewBox="0 0 310.8 221.9" enable-background="new 0 0 310.8 221.9" xml:space="preserve">
<path opacity="0.3" fill="#E6E6E6" enable-background="new    " d="M246.3,35.4c32.5,11.2,63.5,41.7,64.4,81.1s-9.8,79.6-69.1,95.2
	c-55.7,14.6-187.8,19.9-223-29.1C-14.5,136.4-4,61.4,54.1,37.4C94.8,20.6,182.8,13.7,246.3,35.4z"/>
<rect x="47.2" y="58.5" fill="#006BBF" width="216.4" height="137"/>
<rect x="66" y="71.9" fill="#24285B" width="178.9" height="110.1"/>
<rect x="37.2" y="195.5" fill="#006BBF" width="238.4" height="19.9"/>
<rect x="37.2" y="195.5" opacity="8.000000e-02" enable-background="new    " width="238.4" height="19.9"/>
<polygon fill="#FFD200" points="161.7,182 172.4,177.9 156.1,135.4 78.7,165 85.2,182 "/>
<polygon opacity="8.000000e-02" enable-background="new    " points="161.7,182 172.4,177.9 136.3,167.4 122.4,163.3 114.8,175.6 
	110.8,182 "/>
<polygon opacity="8.000000e-02" enable-background="new    " points="156.1,135.4 78.7,165 128.7,179.6 "/>
<rect x="105.3" y="76.1" transform="matrix(0.9679 -0.2512 0.2512 0.9679 -20.1633 40.12)" fill="#FFD200" width="83.5" height="45.9"/>
<polygon opacity="8.000000e-02" enable-background="new    " points="193.2,110.8 112.5,131.7 144.9,90.5 "/>
<polygon opacity="8.000000e-02" enable-background="new    " points="181.7,66.4 100.9,87.3 149.3,107.6 "/>
<rect x="182.8" y="-3.9" transform="matrix(0.4047 -0.9145 0.9145 0.4047 87.8719 210.7245)" fill="#FFD200" width="45.9" height="83.5"/>
<polygon opacity="8.000000e-02" enable-background="new    " points="234.6,75.8 158.3,42 209.3,29.9 "/>
<polygon opacity="8.000000e-02" enable-background="new    " points="253.2,33.8 176.8,0.1 202.2,46 "/>
<rect x="136.8" y="195.5" opacity="8.000000e-02" enable-background="new    " width="39.2" height="9.9"/>
<polygon opacity="8.000000e-02" enable-background="new    " points="46.5,140.2 46.5,148.2 46.5,186.6 66.5,186.6 66.5,148.2 
	66.5,140.2 "/>
<polygon opacity="8.000000e-02" enable-background="new    " points="242.1,58.2 242.1,64.9 242.1,97.1 263.3,97.1 263.3,64.9 
	263.3,58.2 "/>
<polygon opacity="8.000000e-02" enable-background="new    " points="62.6,58.2 62.6,60.2 62.6,69.7 120.6,69.7 120.6,60.2 
	120.6,58.2 "/>
<polygon opacity="8.000000e-02" enable-background="new    " points="216.1,101 216.1,110.6 216.1,156.7 263.6,156.7 263.6,110.6 
	263.6,101 "/>
<rect x="221.2" y="105.8" fill="#E6E6E6" width="60.1" height="46.1"/>
<rect x="47.1" y="100.7" opacity="8.000000e-02" enable-background="new    " width="31" height="35.3"/>
<rect x="36.3" y="95.3" fill="#E6E6E6" width="37.7" height="35.3"/>
<g>
	<g>
		<path fill="#575756" d="M266.9,129.7c0,0,0.1,0.1,0.3,0.3c0.1,0,0.1,0.1,0.2,0.1c0-0.4,0.1-0.9,0.1-1.3c0-0.1,0-0.3,0-0.4
			c0,0-0.1,0-0.1-0.1c0,0,0,0-0.1,0c-0.3-0.2-0.7-0.4-0.7-0.4h-0.8c0-0.3,0-0.6-0.1-0.9l1-0.1c0,0,0.2,0.1,0.4,0.2
			c0.1,0,0.1,0.1,0.2,0.1c-0.1-0.6-0.1-1.1-0.2-1.7H267h-0.1c-0.4-0.1-0.7-0.3-0.7-0.3l-0.8,0.2c-0.1-0.3-0.1-0.6-0.2-0.8l1-0.3
			c0,0,0.2,0.1,0.4,0.1c0.1,0,0.1,0,0.2,0.1c-0.2-0.5-0.3-1.1-0.5-1.6h-0.1h-0.1c-0.2,0-0.3-0.1-0.5-0.1s-0.3,0-0.3,0l-0.7,0.3
			c-0.1-0.3-0.2-0.5-0.4-0.8l0.9-0.5c0,0,0.2,0,0.4,0.1c0.1,0,0.1,0,0.2,0c-0.2-0.5-0.5-1-0.8-1.5h-0.1c0,0,0,0-0.1,0
			c-0.4,0-0.7,0-0.7,0l-0.6,0.4c-0.2-0.2-0.3-0.5-0.5-0.7l0.8-0.6c0,0,0.2,0,0.4,0c0.1,0,0.1,0,0.2,0c-0.3-0.5-0.7-0.9-1-1.3h-0.1
			c0,0,0,0-0.1,0c-0.4,0.1-0.7,0.1-0.7,0.1l-0.6,0.5c-0.2-0.2-0.4-0.4-0.6-0.6l0.7-0.8c0,0,0.2,0,0.4-0.1c0.1,0,0.1,0,0.2,0
			c-0.4-0.4-0.8-0.8-1.3-1.1h-0.1H261c-0.4,0.1-0.7,0.3-0.7,0.3l-0.5,0.6c-0.2-0.2-0.5-0.3-0.7-0.5l0.6-0.9c0,0,0.1,0,0.3-0.1h0.1
			c0.1,0,0.1,0,0.2-0.1c-0.5-0.3-0.9-0.6-1.4-0.9c0,0-0.1,0-0.1,0.1h-0.1c-0.3,0.2-0.7,0.4-0.7,0.4l-0.3,0.7
			c-0.3-0.1-0.5-0.3-0.8-0.4l0.4-1c0,0,0.1-0.1,0.4-0.2c0.1,0,0.1-0.1,0.2-0.1c-0.5-0.2-1-0.4-1.6-0.6c0,0-0.1,0-0.1,0.1
			c0,0,0,0-0.1,0c-0.1,0.1-0.3,0.2-0.4,0.3s-0.2,0.2-0.2,0.2l-0.2,0.7c-0.3-0.1-0.6-0.2-0.8-0.2l0.2-1c0,0,0.1-0.1,0.3-0.3l0.1-0.1
			c-0.5-0.1-1.1-0.3-1.7-0.3l-0.1,0.1c0,0,0,0,0,0.1c-0.3,0.3-0.5,0.6-0.5,0.6l-0.1,0.8c-0.3,0-0.6-0.1-0.9-0.1l0.1-1
			c0,0,0.1-0.1,0.3-0.3c0-0.1,0.1-0.1,0.1-0.2c-0.4,0-0.9-0.1-1.3-0.1c-0.1,0-0.3,0-0.4,0c0,0,0,0.1-0.1,0.1c0,0,0,0,0,0.1
			c-0.2,0.3-0.4,0.7-0.4,0.7v0.8c-0.3,0-0.6,0-0.9,0.1l-0.1-1c0,0,0.1-0.2,0.2-0.4c0-0.1,0.1-0.1,0.1-0.2c-0.6,0.1-1.1,0.1-1.7,0.2
			v0.1v0.1c-0.1,0.4-0.3,0.7-0.3,0.7l0.2,0.8c-0.3,0.1-0.6,0.1-0.8,0.2l-0.3-1c0,0,0.1-0.2,0.1-0.4c0-0.1,0-0.1,0.1-0.2
			c-0.5,0.2-1.1,0.3-1.6,0.5v0.1v0.1c0,0.2-0.1,0.3-0.1,0.5s0,0.3,0,0.3l0.3,0.7c-0.3,0.1-0.5,0.2-0.8,0.4l-0.5-0.9
			c0,0,0-0.2,0.1-0.4c0-0.1,0-0.1,0-0.2c-0.5,0.2-1,0.5-1.5,0.8v0.1c0,0,0,0,0,0.1c0,0.4,0,0.7,0,0.7l0.4,0.6
			c-0.2,0.2-0.5,0.3-0.7,0.5l-0.6-0.8c0,0,0-0.2,0-0.4c0-0.1,0-0.1,0-0.2c-0.5,0.3-0.9,0.7-1.3,1v0.1c0,0,0,0,0,0.1
			c0.1,0.4,0.1,0.7,0.1,0.7l0.5,0.6c-0.2,0.2-0.4,0.4-0.6,0.6l-0.8-0.7c0,0,0-0.2-0.1-0.4c0-0.1,0-0.1,0-0.2
			c-0.4,0.4-0.8,0.8-1.1,1.3v0.1v0.1c0.1,0.4,0.3,0.7,0.3,0.7l0.6,0.5c-0.2,0.2-0.3,0.5-0.5,0.7l-0.9-0.6c0,0,0-0.1-0.1-0.3v-0.1
			c0-0.1,0-0.1-0.1-0.2c-0.3,0.5-0.6,0.9-0.9,1.4c0,0,0,0.1,0.1,0.1v0.1c0.2,0.3,0.4,0.7,0.4,0.7l0.7,0.3c-0.1,0.3-0.3,0.5-0.4,0.8
			l-1-0.4c0,0-0.1-0.1-0.2-0.4c0-0.1-0.1-0.1-0.1-0.2c-0.2,0.5-0.4,1-0.6,1.6c0,0,0,0.1,0.1,0.1c0,0,0,0,0,0.1
			c0.1,0.1,0.2,0.3,0.3,0.4s0.2,0.2,0.2,0.2l0.7,0.2c-0.1,0.3-0.2,0.6-0.2,0.8l-1-0.2c0,0-0.1-0.1-0.3-0.3l-0.1-0.1
			c-0.1,0.5-0.3,1.1-0.3,1.7l0.1,0.1c0,0,0,0,0.1,0c0.3,0.3,0.6,0.5,0.6,0.5l0.8,0.1c0,0.3-0.1,0.6-0.1,0.9l-1-0.1
			c0,0-0.1-0.1-0.3-0.3c-0.1,0-0.1-0.1-0.2-0.1c0,0.4-0.1,0.9-0.1,1.3c0,0.1,0,0.3,0,0.4c0,0,0.1,0,0.1,0.1c0,0,0,0,0.1,0
			c0.3,0.2,0.7,0.4,0.7,0.4h0.8c0,0.3,0,0.6,0.1,0.9l-1,0.1c0,0-0.2-0.1-0.4-0.2c-0.1,0-0.1-0.1-0.2-0.1c0.1,0.6,0.1,1.1,0.2,1.7
			h0.1h0.1c0.4,0.1,0.7,0.3,0.7,0.3l0.8-0.2c0.1,0.3,0.1,0.6,0.2,0.8l-1,0.3c0,0-0.2-0.1-0.4-0.1c-0.1,0-0.1,0-0.2-0.1
			c0.2,0.5,0.3,1.1,0.5,1.6h0.1h0.1c0.2,0,0.3,0.1,0.5,0.1s0.3,0,0.3,0l0.7-0.3c0.1,0.3,0.2,0.5,0.4,0.8l-0.9,0.5c0,0-0.2,0-0.4-0.1
			c-0.1,0-0.1,0-0.2,0c0.2,0.5,0.5,1,0.8,1.5h0.1c0,0,0,0,0.1,0c0.4,0,0.7,0,0.7,0l0.6-0.4c0.2,0.2,0.3,0.5,0.5,0.7l-0.8,0.6
			c0,0-0.2,0-0.4,0c-0.1,0-0.1,0-0.2,0c0.3,0.5,0.7,0.9,1,1.3h0.1c0,0,0,0,0.1,0c0.4-0.1,0.7-0.1,0.7-0.1l0.6-0.5
			c0.2,0.2,0.4,0.4,0.6,0.6l-0.7,0.8c0,0-0.2,0-0.4,0.1c-0.1,0-0.1,0-0.2,0c0.4,0.4,0.8,0.8,1.3,1.1h0.1h0.1
			c0.4-0.1,0.7-0.3,0.7-0.3l0.5-0.6c0.2,0.2,0.5,0.3,0.7,0.5l-0.6,0.9c0,0-0.1,0-0.3,0.1h-0.1c-0.1,0-0.1,0-0.2,0.1
			c0.5,0.3,0.9,0.6,1.4,0.9c0,0,0.1,0,0.1-0.1h0.1c0.3-0.2,0.7-0.4,0.7-0.4l0.3-0.7c0.3,0.1,0.5,0.3,0.8,0.4l-0.4,1
			c0,0-0.1,0.1-0.4,0.2c-0.1,0-0.1,0.1-0.2,0.1c0.5,0.2,1,0.4,1.6,0.6c0,0,0.1,0,0.1-0.1c0,0,0,0,0.1-0.1s0.3-0.2,0.4-0.3
			s0.2-0.2,0.2-0.2l0.2-0.7c0.3,0.1,0.6,0.2,0.8,0.2l-0.2,1c0,0-0.1,0.1-0.3,0.3l-0.1,0.1c0.5,0.1,1.1,0.3,1.7,0.3l0.1-0.1
			c0,0,0,0,0-0.1c0.3-0.3,0.5-0.6,0.5-0.6l0.1-0.8c0.3,0,0.6,0.1,0.9,0.1l-0.1,1c0,0-0.1,0.1-0.3,0.3c0,0.1-0.1,0.1-0.1,0.2
			c0.4,0,0.9,0.1,1.3,0.1c0.1,0,0.3,0,0.4,0c0,0,0-0.1,0.1-0.1c0,0,0,0,0-0.1c0.2-0.3,0.4-0.7,0.4-0.7v-0.8c0.3,0,0.6,0,0.9-0.1
			l0.1,1c0,0-0.1,0.2-0.2,0.4c0,0.1-0.1,0.1-0.1,0.2c0.6-0.1,1.1-0.1,1.7-0.2v-0.1v-0.1c0.1-0.4,0.3-0.7,0.3-0.7l-0.2-0.8
			c0.3-0.1,0.6-0.1,0.8-0.2l0.3,1c0,0-0.1,0.2-0.1,0.4c0,0.1,0,0.1-0.1,0.2c0.5-0.2,1.1-0.3,1.6-0.5v-0.1v-0.1
			c0-0.2,0.1-0.3,0.1-0.5s0-0.3,0-0.3l-0.3-0.7c0.3-0.1,0.5-0.2,0.8-0.4l0.5,0.9c0,0,0,0.2-0.1,0.4c0,0.1,0,0.1,0,0.2
			c0.5-0.2,1-0.5,1.5-0.8v-0.1c0,0,0,0,0-0.1c0-0.4,0-0.7,0-0.7l-0.4-0.6c0.2-0.2,0.5-0.3,0.7-0.5l0.6,0.8c0,0,0,0.2,0,0.4
			c0,0.1,0,0.1,0,0.2c0.5-0.3,0.9-0.7,1.3-1v-0.1c0,0,0,0,0-0.1c-0.1-0.4-0.1-0.7-0.1-0.7l-0.5-0.6c0.2-0.2,0.4-0.4,0.6-0.6l0.8,0.7
			c0,0,0,0.2,0.1,0.4c0,0.1,0,0.1,0,0.2c0.4-0.4,0.8-0.8,1.1-1.3v-0.1v-0.1c-0.1-0.4-0.3-0.7-0.3-0.7l-0.6-0.5
			c0.2-0.2,0.3-0.5,0.5-0.7l0.9,0.6c0,0,0,0.1,0.1,0.3v0.1c0,0.1,0,0.1,0.1,0.2c0.3-0.5,0.6-0.9,0.9-1.4c0,0,0-0.1-0.1-0.1v-0.1
			c-0.2-0.3-0.4-0.7-0.4-0.7l-0.7-0.3c0.1-0.3,0.3-0.5,0.4-0.8l1,0.4c0,0,0.1,0.1,0.2,0.4c0,0.1,0.1,0.1,0.1,0.2
			c0.2-0.5,0.4-1,0.6-1.6c0,0,0-0.1-0.1-0.1c0,0,0,0,0-0.1c-0.1-0.1-0.2-0.3-0.3-0.4c-0.1-0.1-0.2-0.2-0.2-0.2l-0.7-0.2
			c0.1-0.3,0.2-0.6,0.2-0.8l1,0.2c0,0,0.1,0.1,0.3,0.3l0.1,0.1c0.1-0.5,0.3-1.1,0.3-1.7l-0.1-0.1c0,0,0,0-0.1,0
			c-0.3-0.3-0.6-0.5-0.6-0.5l-0.8-0.1c0-0.3,0.1-0.6,0.1-0.9L266.9,129.7z M251.3,140.3c-6.3,0-11.4-5.1-11.4-11.4
			c0-6.3,5.1-11.4,11.4-11.4c6.3,0,11.4,5.1,11.4,11.4C262.7,135.1,257.6,140.3,251.3,140.3z"/>
		<path fill="#3C3C3B" d="M238.2,120.2l0.9,0.6c0.2-0.2,0.3-0.5,0.5-0.7l-0.6-0.5c0,0-0.1-0.3-0.3-0.7c-0.2,0.3-0.5,0.6-0.7,0.9v0.1
			C238.2,120.1,238.2,120.2,238.2,120.2z"/>
		<path fill="#9D9D9C" d="M251.3,116.8c-6.6,0-12,5.4-12,12c0,6.6,5.4,12,12,12c6.6,0,12-5.4,12-12S257.9,116.8,251.3,116.8z
			 M251.3,139.5c-5.9,0-10.7-4.8-10.7-10.7s4.8-10.7,10.7-10.7c5.9,0,10.7,4.8,10.7,10.7S257.2,139.5,251.3,139.5z"/>
		<path fill="#9D9D9C" d="M251.3,121.5c-4.1,0-7.4,3.3-7.4,7.4c0,4.1,3.3,7.4,7.4,7.4s7.4-3.3,7.4-7.4S255.4,121.5,251.3,121.5z
			 M251.3,133.5c-2.6,0-4.6-2.1-4.6-4.6c0-2.6,2.1-4.6,4.6-4.6c2.6,0,4.6,2.1,4.6,4.6C255.9,131.4,253.9,133.5,251.3,133.5z"/>
		<path fill="#3C3C3B" d="M251.3,141.7c-7.1,0-12.8-5.8-12.8-12.8c0-7.1,5.8-12.8,12.8-12.8c7.1,0,12.8,5.8,12.8,12.8
			C264.1,135.9,258.4,141.7,251.3,141.7z M251.3,116.1c-7,0-12.8,5.7-12.8,12.8c0,7,5.7,12.8,12.8,12.8c7.1,0,12.8-5.7,12.8-12.8
			S258.3,116.1,251.3,116.1z"/>
		<path fill="#3C3C3B" d="M251.3,143.1c-7.9,0-14.3-6.4-14.3-14.3s6.4-14.3,14.3-14.3s14.3,6.4,14.3,14.3S259.2,143.1,251.3,143.1z
			 M251.3,114.7c-7.8,0-14.1,6.3-14.1,14.1s6.3,14.1,14.1,14.1s14.1-6.3,14.1-14.1C265.4,121.1,259.1,114.7,251.3,114.7z"/>
		<path fill="#3C3C3B" d="M251.3,141c-6.7,0-12.2-5.5-12.2-12.2s5.5-12.2,12.2-12.2s12.2,5.5,12.2,12.2
			C263.5,135.6,258,141,251.3,141z M251.3,117c-6.5,0-11.8,5.3-11.8,11.8c0,6.5,5.3,11.8,11.8,11.8c6.5,0,11.8-5.3,11.8-11.8
			S257.8,117,251.3,117z"/>
		<path fill="#3C3C3B" d="M241.3,139.5c-0.2-0.2-0.4-0.4-0.6-0.6l-0.6,0.5c0,0-0.4,0.1-0.7,0.1c0.3,0.3,0.5,0.6,0.8,0.8
			c0.2-0.1,0.4-0.1,0.4-0.1L241.3,139.5z"/>
		<path fill="#3C3C3B" d="M239.6,137.6c-0.2-0.2-0.3-0.5-0.5-0.7l-0.6,0.4c0,0-0.4,0-0.7,0c0.2,0.3,0.4,0.6,0.6,0.9
			c0.3,0,0.4,0,0.4,0L239.6,137.6z"/>
		<path fill="#3C3C3B" d="M245.5,142.3c-0.3-0.1-0.5-0.2-0.8-0.4l-0.3,0.7c0,0-0.3,0.2-0.7,0.4c0.3,0.2,0.7,0.3,1,0.5
			c0.2-0.1,0.4-0.2,0.4-0.2L245.5,142.3z"/>
		<path fill="#3C3C3B" d="M242.7,141.9l0.6-0.9c-0.2-0.2-0.5-0.3-0.7-0.5l-0.5,0.6c0,0-0.3,0.1-0.7,0.3c0.3,0.2,0.6,0.5,0.9,0.7h0.1
			C242.6,142,242.7,141.9,242.7,141.9z"/>
		<path fill="#3C3C3B" d="M238.2,135.4c-0.1-0.3-0.3-0.5-0.4-0.8l-0.7,0.3c0,0-0.1,0-0.3,0c-0.1,0-0.3-0.1-0.5-0.1
			c0.1,0.3,0.3,0.7,0.4,1c0.3,0,0.4,0.1,0.4,0.1L238.2,135.4z"/>
		<path fill="#3C3C3B" d="M236.7,128c0-0.3,0-0.6,0.1-0.9L236,127c0,0-0.3-0.2-0.6-0.5c-0.1,0.4-0.1,0.7-0.1,1.1
			c0.2,0.2,0.3,0.3,0.3,0.3L236.7,128z"/>
		<path fill="#3C3C3B" d="M247.9,143.1c-0.3-0.1-0.6-0.1-0.8-0.2l-0.2,0.7c0,0-0.1,0.1-0.2,0.2c-0.1,0.1-0.2,0.2-0.4,0.3
			c0.4,0.1,0.7,0.2,1.1,0.3c0.2-0.2,0.3-0.3,0.3-0.3L247.9,143.1z"/>
		<path fill="#3C3C3B" d="M237.3,133c-0.1-0.3-0.2-0.6-0.2-0.8l-0.8,0.2c0,0-0.3-0.1-0.7-0.3c0.1,0.4,0.2,0.7,0.3,1.1
			c0.2,0.1,0.4,0.1,0.4,0.1L237.3,133z"/>
		<path fill="#3C3C3B" d="M237.1,125.5c0.1-0.3,0.1-0.6,0.2-0.8l-0.7-0.2c0,0-0.1-0.1-0.2-0.2c-0.1-0.1-0.2-0.2-0.3-0.4
			c-0.1,0.4-0.2,0.7-0.3,1.1c0.2,0.2,0.3,0.3,0.3,0.3L237.1,125.5z"/>
		<path fill="#3C3C3B" d="M237.9,123c0.1-0.3,0.2-0.5,0.4-0.8l-0.7-0.3c0,0-0.2-0.3-0.4-0.7c-0.2,0.3-0.3,0.7-0.5,1
			c0.1,0.2,0.2,0.4,0.2,0.4L237.9,123z"/>
		<path fill="#3C3C3B" d="M236.8,130.5c0-0.3-0.1-0.6-0.1-0.9h-0.8c0,0-0.3-0.2-0.7-0.4c0,0.4,0,0.8,0.1,1.1
			c0.2,0.1,0.4,0.2,0.4,0.2L236.8,130.5z"/>
		<path fill="#3C3C3B" d="M264.4,137.5l-0.9-0.6c-0.2,0.2-0.3,0.5-0.5,0.7l0.6,0.5c0,0,0.1,0.3,0.3,0.7c0.2-0.3,0.5-0.6,0.7-0.9
			v-0.1C264.5,137.6,264.4,137.5,264.4,137.5z"/>
		<path fill="#3C3C3B" d="M264.7,134.6c-0.1,0.3-0.2,0.5-0.4,0.8l0.7,0.3c0,0,0.2,0.3,0.4,0.7c0.2-0.3,0.3-0.7,0.5-1
			c-0.1-0.2-0.2-0.4-0.2-0.4L264.7,134.6z"/>
		<path fill="#3C3C3B" d="M250.5,143.4c-0.3,0-0.6,0-0.9-0.1l-0.1,0.8c0,0-0.2,0.3-0.5,0.6c0.4,0.1,0.7,0.1,1.1,0.1
			c0.2-0.2,0.3-0.3,0.3-0.3L250.5,143.4z"/>
		<path fill="#3C3C3B" d="M261.9,138.9c-0.2,0.2-0.4,0.4-0.6,0.6l0.5,0.6c0,0,0.1,0.4,0.1,0.7c0.3-0.3,0.6-0.5,0.8-0.8
			c-0.1-0.2-0.1-0.4-0.1-0.4L261.9,138.9z"/>
		<path fill="#3C3C3B" d="M266.9,129.7l-1-0.1c0,0.3,0,0.6-0.1,0.9l0.8,0.1c0,0,0.3,0.2,0.6,0.5c0.1-0.4,0.1-0.7,0.1-1.1
			C267.1,129.9,266.9,129.7,266.9,129.7z"/>
		<path fill="#3C3C3B" d="M265.5,132.2c-0.1,0.3-0.1,0.6-0.2,0.8l0.7,0.2c0,0,0.1,0.1,0.2,0.2c0.1,0.1,0.2,0.2,0.3,0.4
			c0.1-0.4,0.2-0.7,0.3-1.1c-0.2-0.2-0.3-0.3-0.3-0.3L265.5,132.2z"/>
		<path fill="#3C3C3B" d="M255.5,142.9c-0.3,0.1-0.6,0.2-0.8,0.2l0.2,0.8c0,0-0.1,0.3-0.3,0.7c0.4-0.1,0.7-0.2,1.1-0.3
			c0.1-0.2,0.1-0.4,0.1-0.4L255.5,142.9z"/>
		<path fill="#3C3C3B" d="M253,143.4c-0.3,0-0.6,0.1-0.9,0.1v0.8c0,0-0.2,0.3-0.4,0.7c0.4,0,0.8,0,1.1-0.1c0.1-0.2,0.2-0.4,0.2-0.4
			L253,143.4z"/>
		<path fill="#3C3C3B" d="M257.9,141.9c-0.3,0.1-0.5,0.3-0.8,0.4l0.3,0.7c0,0,0,0.1,0,0.3c0,0.1-0.1,0.3-0.1,0.5
			c0.3-0.1,0.7-0.3,1-0.4c0-0.3,0.1-0.4,0.1-0.4L257.9,141.9z"/>
		<path fill="#3C3C3B" d="M260,140.6c-0.2,0.2-0.5,0.3-0.7,0.5l0.4,0.6c0,0,0,0.4,0,0.7c0.3-0.2,0.6-0.4,0.9-0.6c0-0.3,0-0.4,0-0.4
			L260,140.6z"/>
		<path fill="#3C3C3B" d="M259.9,115.7l-0.6,0.9c0.2,0.2,0.5,0.3,0.7,0.5l0.5-0.6c0,0,0.3-0.1,0.7-0.3c-0.3-0.2-0.6-0.5-0.9-0.7
			h-0.1C260,115.7,259.9,115.7,259.9,115.7z"/>
		<path fill="#3C3C3B" d="M249.6,114.3c0.3,0,0.6-0.1,0.9-0.1v-0.8c0,0,0.2-0.3,0.4-0.7c-0.4,0-0.8,0-1.1,0.1
			c-0.1,0.2-0.2,0.4-0.2,0.4L249.6,114.3z"/>
		<path fill="#3C3C3B" d="M244.7,115.8c0.3-0.1,0.5-0.3,0.8-0.4l-0.3-0.7c0,0,0-0.1,0-0.3c0-0.1,0.1-0.3,0.1-0.5
			c-0.3,0.1-0.7,0.3-1,0.4c0,0.3-0.1,0.4-0.1,0.4L244.7,115.8z"/>
		<path fill="#3C3C3B" d="M247.1,114.8c0.3-0.1,0.6-0.2,0.8-0.2l-0.2-0.8c0,0,0.1-0.3,0.3-0.7c-0.4,0.1-0.7,0.2-1.1,0.3
			c-0.1,0.2-0.1,0.4-0.1,0.4L247.1,114.8z"/>
		<path fill="#3C3C3B" d="M254.7,114.6c0.3,0.1,0.6,0.1,0.8,0.2l0.2-0.7c0,0,0.1-0.1,0.2-0.2c0.1-0.1,0.2-0.2,0.4-0.3
			c-0.4-0.1-0.7-0.2-1.1-0.3c-0.2,0.2-0.3,0.3-0.3,0.3L254.7,114.6z"/>
		<path fill="#3C3C3B" d="M263,120.1c0.2,0.2,0.3,0.5,0.5,0.7l0.6-0.4c0,0,0.4,0,0.7,0c-0.2-0.3-0.4-0.6-0.6-0.9c-0.3,0-0.4,0-0.4,0
			L263,120.1z"/>
		<path fill="#3C3C3B" d="M265.3,124.6c0.1,0.3,0.2,0.6,0.2,0.8l0.8-0.2c0,0,0.3,0.1,0.7,0.3c-0.1-0.4-0.2-0.7-0.3-1.1
			c-0.2-0.1-0.4-0.1-0.4-0.1L265.3,124.6z"/>
		<path fill="#3C3C3B" d="M252.2,114.2c0.3,0,0.6,0,0.9,0.1l0.1-0.8c0,0,0.2-0.3,0.5-0.6c-0.4-0.1-0.7-0.1-1.1-0.1
			c-0.2,0.2-0.3,0.3-0.3,0.3L252.2,114.2z"/>
		<path fill="#3C3C3B" d="M257.1,115.4c0.3,0.1,0.5,0.2,0.8,0.4l0.3-0.7c0,0,0.3-0.2,0.7-0.4c-0.3-0.2-0.7-0.3-1-0.5
			c-0.2,0.1-0.4,0.2-0.4,0.2L257.1,115.4z"/>
		<path fill="#3C3C3B" d="M264.4,122.3c0.1,0.3,0.3,0.5,0.4,0.8l0.7-0.3c0,0,0.1,0,0.3,0c0.1,0,0.3,0.1,0.5,0.1
			c-0.1-0.3-0.3-0.7-0.4-1c-0.3,0-0.4-0.1-0.4-0.1L264.4,122.3z"/>
		<path fill="#3C3C3B" d="M265.8,127.1c0,0.3,0.1,0.6,0.1,0.9h0.8c0,0,0.3,0.2,0.7,0.4c0-0.4,0-0.8-0.1-1.1
			c-0.2-0.1-0.4-0.2-0.4-0.2L265.8,127.1z"/>
		<path fill="#3C3C3B" d="M242.6,117.1c0.2-0.2,0.5-0.3,0.7-0.5l-0.4-0.6c0,0,0-0.4,0-0.7c-0.3,0.2-0.6,0.4-0.9,0.6
			c0,0.3,0,0.4,0,0.4L242.6,117.1z"/>
		<path fill="#3C3C3B" d="M261.3,118.2c0.2,0.2,0.4,0.4,0.6,0.6l0.6-0.5c0,0,0.4-0.1,0.7-0.1c-0.3-0.3-0.5-0.6-0.8-0.8
			c-0.2,0.1-0.4,0.1-0.4,0.1L261.3,118.2z"/>
		<g>
			<path fill="#3C3C3B" d="M240.6,116.9c-0.3,0.3-0.6,0.5-0.8,0.8c0.1,0.2,0.1,0.4,0.1,0.4l0.8,0.7c0.2-0.2,0.4-0.4,0.6-0.6
				l-0.5-0.6C240.7,117.6,240.7,117.3,240.6,116.9z"/>
			<path fill="#C6C6C6" d="M251.3,124.2c-2.6,0-4.6,2.1-4.6,4.6c0,2.6,2.1,4.6,4.6,4.6c2.6,0,4.6-2.1,4.6-4.6
				S253.9,124.2,251.3,124.2z M253.1,126.1c0.3-0.3,0.7-0.3,0.9,0c0.3,0.3,0.3,0.7,0,0.9c-0.3,0.3-0.7,0.3-0.9,0
				C252.8,126.8,252.8,126.4,253.1,126.1z M251.3,125.6c0.2,0,0.4,0.2,0.4,0.4s-0.2,0.4-0.4,0.4s-0.4-0.2-0.4-0.4
				S251.1,125.6,251.3,125.6z M248.6,126.1c0.3-0.3,0.7-0.3,0.9,0c0.3,0.3,0.3,0.7,0,0.9c-0.3,0.3-0.7,0.3-0.9,0
				C248.3,126.8,248.3,126.4,248.6,126.1z M248.1,128.8c0-0.2,0.2-0.4,0.4-0.4s0.4,0.2,0.4,0.4s-0.2,0.4-0.4,0.4
				C248.2,129.2,248.1,129,248.1,128.8z M249.5,131.5c-0.3,0.3-0.7,0.3-0.9,0c-0.3-0.3-0.3-0.7,0-0.9c0.3-0.3,0.7-0.3,0.9,0
				C249.8,130.9,249.8,131.3,249.5,131.5z M251.3,132.1c-0.2,0-0.4-0.2-0.4-0.4s0.2-0.4,0.4-0.4s0.4,0.2,0.4,0.4
				S251.5,132.1,251.3,132.1z M251.3,130.6c-1,0-1.8-0.8-1.8-1.8s0.8-1.8,1.8-1.8s1.8,0.8,1.8,1.8S252.3,130.6,251.3,130.6z
				 M254,131.5c-0.3,0.3-0.7,0.3-0.9,0c-0.3-0.3-0.3-0.7,0-0.9c0.3-0.3,0.7-0.3,0.9,0C254.3,130.9,254.3,131.3,254,131.5z
				 M254.1,129.2c-0.2,0-0.4-0.2-0.4-0.4s0.2-0.4,0.4-0.4s0.4,0.2,0.4,0.4S254.4,129.2,254.1,129.2z"/>
		</g>
		<path fill="#878787" d="M251.3,135.9c-3.9,0-7.1-3.2-7.1-7.1c0-3.9,3.2-7.1,7.1-7.1s7.1,3.2,7.1,7.1
			C258.4,132.7,255.2,135.9,251.3,135.9z M251.3,122c-3.7,0-6.8,3-6.8,6.8c0,3.7,3,6.8,6.8,6.8c3.7,0,6.8-3,6.8-6.8
			C258.1,125.1,255,122,251.3,122z"/>
		<path fill="#C6C6C6" d="M251.3,118.1c-5.9,0-10.7,4.8-10.7,10.7s4.8,10.7,10.7,10.7c5.9,0,10.7-4.8,10.7-10.7
			S257.2,118.1,251.3,118.1z M258.6,123.4c0.6-0.3,1.3-0.2,1.5,0.3c0.3,0.5,0,1.1-0.5,1.5c-0.6,0.3-1.3,0.2-1.5-0.3
			C257.8,124.4,258.1,123.8,258.6,123.4z M258.7,128.8c0,4.1-3.3,7.4-7.4,7.4s-7.4-3.3-7.4-7.4c0-4.1,3.3-7.4,7.4-7.4
			S258.7,124.8,258.7,128.8z M254.9,120.5c0.3-0.6,1-0.8,1.5-0.5s0.6,1,0.3,1.5c-0.3,0.6-1,0.8-1.5,0.5S254.6,121.1,254.9,120.5z
			 M251.3,118.6c0.6,0,1,0.5,1,1.2s-0.5,1.2-1,1.2s-1-0.5-1-1.2S250.7,118.6,251.3,118.6z M246.2,120c0.5-0.3,1.1,0,1.5,0.5
			c0.3,0.6,0.2,1.3-0.3,1.5c-0.5,0.3-1.1,0-1.5-0.5C245.6,120.9,245.7,120.3,246.2,120z M242.4,123.7c0.3-0.5,1-0.6,1.5-0.3
			c0.6,0.3,0.8,1,0.5,1.5s-1,0.6-1.5,0.3C242.4,124.9,242.2,124.2,242.4,123.7z M241.1,128.8c0-0.6,0.5-1,1.2-1s1.2,0.5,1.2,1
			c0,0.6-0.5,1-1.2,1S241.1,129.4,241.1,128.8z M244,134.2c-0.6,0.3-1.3,0.2-1.5-0.3c-0.3-0.5,0-1.1,0.5-1.5
			c0.6-0.3,1.3-0.2,1.5,0.3C244.8,133.2,244.5,133.9,244,134.2z M247.7,137.2c-0.3,0.6-1,0.8-1.5,0.5s-0.6-1-0.3-1.5
			c0.3-0.6,1-0.8,1.5-0.5C247.9,135.9,248,136.6,247.7,137.2z M251.3,139.1c-0.6,0-1-0.5-1-1.2s0.5-1.2,1-1.2s1,0.5,1,1.2
			C252.3,138.5,251.9,139.1,251.3,139.1z M256.4,137.7c-0.5,0.3-1.1,0-1.5-0.5c-0.3-0.6-0.2-1.3,0.3-1.5c0.5-0.3,1.1,0,1.5,0.5
			C257,136.7,256.9,137.4,256.4,137.7z M260.2,133.9c-0.3,0.5-1,0.6-1.5,0.3c-0.6-0.3-0.8-1-0.5-1.5s1-0.6,1.5-0.3
			C260.2,132.8,260.4,133.5,260.2,133.9z M260.3,129.8c-0.7,0-1.2-0.5-1.2-1c0-0.6,0.5-1,1.2-1s1.2,0.5,1.2,1
			C261.5,129.4,261,129.8,260.3,129.8z"/>
		<path fill="#878787" d="M251.3,140c-6.1,0-11.1-5-11.1-11.1s5-11.1,11.1-11.1c6.1,0,11.1,5,11.1,11.1
			C262.4,135,257.4,140,251.3,140z M251.3,118.1c-5.9,0-10.7,4.8-10.7,10.7s4.8,10.7,10.7,10.7c5.9,0,10.7-4.8,10.7-10.7
			S257.2,118.1,251.3,118.1z"/>
		<path fill="#878787" d="M251.3,133.9c-2.8,0-5.1-2.3-5.1-5.1s2.3-5.1,5.1-5.1s5.1,2.3,5.1,5.1
			C256.4,131.6,254.1,133.9,251.3,133.9z M251.3,124c-2.7,0-4.9,2.2-4.9,4.9c0,2.7,2.2,4.9,4.9,4.9s4.9-2.2,4.9-4.9
			S254,124,251.3,124z"/>
	</g>
	<g opacity="0.15">
		<path fill="#1D1D1B" d="M266.9,132.8l0.1,0.1c0-0.1,0-0.2,0.1-0.2C267,132.7,266.9,132.7,266.9,132.8z"/>
		<path fill="#1D1D1B" d="M242.3,129.8c-0.7,0-1.2-0.5-1.2-1c0-0.6,0.5-1,1.2-1s1.2,0.5,1.2,1C243.4,129.4,242.9,129.8,242.3,129.8z
			 M244,134.2c-0.6,0.3-1.3,0.2-1.5-0.3c-0.3-0.5,0-1.1,0.5-1.5c0.6-0.3,1.3-0.2,1.5,0.3C244.8,133.2,244.5,133.9,244,134.2z
			 M247.7,137.2c-0.3,0.6-1,0.8-1.5,0.5s-0.6-1-0.3-1.5c0.3-0.6,1-0.8,1.5-0.5C247.9,135.9,248,136.6,247.7,137.2z M251.3,139.1
			c-0.6,0-1-0.5-1-1.2s0.5-1.2,1-1.2s1,0.5,1,1.2C252.3,138.5,251.9,139.1,251.3,139.1z M256.4,137.7c-0.5,0.3-1.1,0-1.5-0.5
			c-0.3-0.6-0.2-1.3,0.3-1.5c0.5-0.3,1.1,0,1.5,0.5C257,136.7,256.9,137.4,256.4,137.7z"/>
	</g>
</g>
<rect x="247" y="48.9" fill="#E6E6E6" width="44.4" height="41.6"/>
<rect x="14.8" y="137.8" fill="#E6E6E6" width="46.1" height="43.1"/>
<rect x="66" y="19.8" fill="#E6E6E6" width="49.8" height="46.6"/>
<g>
	<g>
		<g>
			<path fill="#D4F4FF" d="M99.8,43.2H81c-1.1,0-1.8-1-1.5-2L84,26.9c0.2-0.6,0.8-1.1,1.5-1.1h14.3c0.9,0,1.6,0.7,1.6,1.5v14.3
				C101.4,42.5,100.7,43.2,99.8,43.2z"/>
			<path fill="#9FF5FF" d="M101.4,39.9V27.7c0-0.8-0.7-1.5-1.6-1.5H85.4c-0.7,0-1.3,0.4-1.5,1.1l-4.1,12.8c-0.9,0.5-1.4,1.6-1.4,2.7
				v14.3c0,1.7,1.3,3.1,2.9,3.1h18.9c1.6,0,2.9-1.4,2.9-3.1V42.8C103.1,41.5,102.4,40.4,101.4,39.9z M85.3,27.6
				c0-0.1,0.1-0.1,0.2-0.1h14.4c0.1,0,0.2,0.1,0.2,0.2v11.9H81.4L85.3,27.6z"/>
			<path fill="#2ADEFF" d="M82.1,40.3c0.2,0.6-0.2,1.2-0.7,1.3c-0.6,0.2-1.1-0.1-1.3-0.7c-0.2-0.6,1-2.2,1.5-2.4
				C82.2,38.4,82,39.8,82.1,40.3z"/>
			<path fill="#2ADEFF" d="M82.1,35.3c0-0.3-0.3-0.5-0.6-0.4c-0.9,0.4-1.5,1.5-1.4,2.8c0.1,1.2,0.8,2.3,1.7,2.6
				c0.3,0.1,0.5-0.1,0.5-0.4L82.1,35.3z"/>
			<polygon fill="#FFFFFF" points="99.6,38.6 98.4,38.6 96.1,27.8 99.6,27.8 			"/>
			<path fill="#C6C6C6" d="M99.1,44.2h-2.8c-0.3,0-0.5-0.2-0.5-0.5v-0.9c0-0.3,0.2-0.5,0.5-0.5h2.8c0.3,0,0.5,0.2,0.5,0.5v0.8
				C99.6,43.9,99.3,44.2,99.1,44.2z"/>
			<path fill="#FFFFFF" d="M98.9,42.4h-2.8l0,0l2.6,0.2c0.3,0,0.4,0.2,0.6,0.5l0.1,0.9c0-0.1,0-0.1,0-0.2V43
				C99.4,42.6,99.2,42.4,98.9,42.4z"/>
			<polygon fill="#FFFFFF" points="103.4,41.1 103.4,41.1 103.4,41.1 103.4,41.1 103.4,41.1 103.4,41.1 103.4,41.1 103.4,41.1 
				103.4,41.1 103.4,41.1 103.4,41.1 103.4,41.1 103.4,41.1 103.4,41.1 103.4,41.1 103.4,41.1 103.4,41.1 103.4,41.1 103.4,41.1 
				103.4,41.1 			"/>
			<path fill="#FFFFFF" d="M102.2,41.7c-0.1-1-0.9-1.7-1.8-1.7H86.6L102.2,41.7z"/>
		</g>
	</g>
</g>
<g>
	<g>
		<g>
			<rect x="266.7" y="82.9" fill="#C6C6C6" width="1.6" height="1.4"/>
			<path fill="#F6F6F6" d="M268.7,83.3h-2.4c-0.5,0-0.9-0.4-0.9-0.8l-0.5-14.2c0-0.5,0.4-0.9,0.9-0.9h3.5c0.5,0,0.9,0.4,0.9,0.9
				l-0.5,14.2C269.6,82.9,269.2,83.3,268.7,83.3z"/>
			<path fill="#C6C6C6" d="M272.1,69.4h-1h-7.2h-1c-0.2,0-0.3,0.1-0.3,0.3V72c0,0.2,0.1,0.3,0.3,0.3h1h7.2h1c0.2,0,0.3-0.1,0.3-0.3
				v-2.3C272.4,69.6,272.3,69.4,272.1,69.4z"/>
			<g>
				<path fill="#706F6F" d="M269.6,54.7v1.4h0.6v-1.4c0-0.9-0.8-1.7-1.7-1.7h-2.1v0.6h2.1C269.1,53.6,269.6,54.1,269.6,54.7z"/>
			</g>
			<rect x="266.2" y="54.3" fill="#706F6F" width="2.7" height="1.7"/>
			<rect x="264.3" y="55.5" fill="#9E9E9E" width="6.3" height="13.9"/>
			<polygon fill="#B4B4B3" points="271.1,57.1 263.9,56.5 263.9,56 271.1,56.5 			"/>
			<polygon fill="#B4B4B3" points="271.1,58 263.9,57.5 263.9,56.9 271.1,57.5 			"/>
			<polygon fill="#B4B4B3" points="271.1,59 263.9,58.4 263.9,57.8 271.1,58.4 			"/>
			<polygon fill="#B4B4B3" points="271.1,59.9 263.9,59.3 263.9,58.7 271.1,59.3 			"/>
			<polygon fill="#B4B4B3" points="271.1,60.8 263.9,60.2 263.9,59.6 271.1,60.2 			"/>
			<polygon fill="#B4B4B3" points="271.1,61.7 263.9,61.1 263.9,60.6 271.1,61.1 			"/>
			<polygon fill="#B4B4B3" points="271.1,62.6 263.9,62.1 263.9,61.5 271.1,62.1 			"/>
			<polygon fill="#B4B4B3" points="271.1,63.6 263.9,63 263.9,62.4 271.1,63 			"/>
			<polygon fill="#B4B4B3" points="271.1,64.5 263.9,63.9 263.9,63.3 271.1,63.9 			"/>
			<path fill="#C6C6C6" d="M270.8,69.4h-6.6c-0.3,0-0.5-0.3-0.5-0.6v-3c0-0.3,0.2-0.6,0.5-0.6h6.6c0.3,0,0.5,0.3,0.5,0.6v3
				C271.3,69.1,271.1,69.4,270.8,69.4z"/>
			<path fill="#EDEDED" d="M269.7,72.2c-1.5,0-3,0-4.5,0c-0.1,0-0.2-0.1-0.3-0.3c-0.3-0.7-0.3-1.5,0-2.1c0.1-0.2,0.2-0.3,0.3-0.3
				c1.5,0,3,0,4.5,0c0.1,0,0.2,0.1,0.3,0.3c0.3,0.7,0.3,1.5,0,2.1C270,72.1,269.8,72.2,269.7,72.2z"/>
			<path fill="#EDEDED" d="M272.4,72v-2.1c0-0.2-0.1-0.3-0.3-0.3h-1c-0.1,0-0.2,0.1-0.3,0.3c-0.4,0.7-0.4,1.5,0,2.1
				c0.1,0.2,0.2,0.3,0.3,0.3h1C272.3,72.2,272.4,72.1,272.4,72z"/>
			<path fill="#EDEDED" d="M264.2,72c0.4-0.7,0.4-1.5,0-2.1c-0.1-0.2-0.2-0.3-0.3-0.3h-1c-0.2,0-0.3,0.1-0.3,0.3V72
				c0,0.2,0.1,0.3,0.3,0.3h1C264,72.2,264.1,72.1,264.2,72z"/>
			<g>
				<polygon fill="#B2B2B2" points="269.6,81.7 265.4,81.7 265.4,82.2 269.6,82.2 				"/>
				<polygon fill="#B2B2B2" points="269.7,80.8 265.3,80.8 265.3,81.3 269.7,81.3 				"/>
				<polygon fill="#B2B2B2" points="269.7,80 265.3,80 265.3,80.5 269.7,80.5 				"/>
				<polygon fill="#B2B2B2" points="269.7,79.1 265.3,79.1 265.3,79.6 269.7,79.6 				"/>
				<polygon fill="#B2B2B2" points="269.8,78.3 265.2,78.3 265.2,78.8 269.8,78.8 				"/>
			</g>
			<path fill="#C6C6C6" d="M268.1,86.4c-0.4,0-0.9,0-1.3,0c-0.2,0-0.4-0.3-0.5-0.6c0-0.4,0-0.7,0-1.1c0-0.3,0.3-0.6,0.5-0.6
				c0.4,0,0.9,0,1.3,0c0.2,0,0.4,0.3,0.5,0.6c0,0.4,0,0.7,0,1.1C268.6,86.1,268.3,86.4,268.1,86.4z"/>
		</g>
		<rect x="269.7" y="55.5" opacity="0.36" fill="#FFFFFF" enable-background="new    " width="0.6" height="9.7"/>
		<path fill="#FFFFFF" d="M270.6,69.3h-0.3c-0.1,0-0.2-0.1-0.2-0.2v-3.5c0-0.1,0.1-0.2,0.2-0.2h0.3c0.1,0,0.2,0.1,0.2,0.2v3.5
			C270.7,69.2,270.7,69.3,270.6,69.3z"/>
		<rect x="271.2" y="69.6" fill="#FFFFFF" width="0.6" height="2.7"/>
		<path fill="#FFFFFF" d="M269.1,82.7H269c-0.1,0-0.3-0.1-0.3-0.3l0.3-9.5c0-0.1,0.1-0.2,0.3-0.2h0.1c0.1,0,0.3,0.1,0.3,0.3
			l-0.3,9.5C269.3,82.5,269.2,82.7,269.1,82.7z"/>
		<path fill="#FFFFFF" d="M268.2,86L268.2,86c-0.2,0-0.3-0.1-0.3-0.2v-1.1c0-0.1,0.1-0.2,0.2-0.2h0.1c0.1,0,0.2,0.1,0.2,0.2v1.1
			C268.4,85.9,268.3,86,268.2,86z"/>
	</g>
</g>
<g>
	<g>
		<g>
			<g>
				<path fill="#6D797C" d="M37.8,163.8L37.8,163.8c-0.6,0-0.9,0-1.5,0c-3.8,0.1-5.8,6.7-2.7,8.3c1.4,0.5,2.6,0.8,4.2,0.8l0,0l0,0
					c1.5,0,2.8-0.3,4.2-0.8c3.1-1.6,1.1-8.2-2.7-8.3C38.7,163.8,38.4,163.8,37.8,163.8L37.8,163.8z M37.8,175L37.8,175
					c-8.1,0-14.8-6.2-15.5-14.1c0.6-0.7,1.4-1.4,2.3-2c0,0.2,0.1,0.4,0.3,0.6c1.5,1,6.1-4.3,12.9-4.3l0,0l0,0
					c6.8,0,11.4,5.3,12.9,4.3c0.2-0.1,0.3-0.3,0.3-0.6c0.9,0.6,1.7,1.3,2.3,2C52.6,168.8,45.9,175,37.8,175L37.8,175z M27.3,167.8
					c3.4,2.6,5-4.3,3.1-4.1c-1.8-0.1-3.3-0.3-4.4-0.6c-0.5-0.2-1,0.4-0.8,0.9C25.6,165.4,26.4,166.7,27.3,167.8z M50.5,164
					c0.2-0.5-0.3-1.1-0.8-0.9c-1.1,0.3-2.6,0.5-4.4,0.6c-2-0.2-0.4,6.8,3.1,4.1C49.2,166.7,50,165.4,50.5,164z"/>
				<path fill="#838F92" d="M37.8,145.9L37.8,145.9c-0.5,0-1,0.3-1.5,0.4c-0.5,0.1-1-0.1-1.5,0s-0.9,0.5-1.4,0.7s-1,0.1-1.5,0.3
					s-0.8,0.7-1.2,1c-0.4,0.3-1,0.3-1.4,0.6s-0.6,0.9-0.9,1.2s-0.9,0.5-1.2,0.9c-0.3,0.4-0.4,1-0.6,1.4c-0.3,0.4-0.8,0.7-1,1.2
					c-0.2,0.4-0.1,1-0.3,1.5c-0.2,0.5-0.6,0.9-0.7,1.4s0.1,1,0,1.5c0,0.3-0.1,0.6,0,0.9c-0.9,0.6-1.7,1.3-2.3,2c0-0.5-0.1-1-0.1-1.5
					c0-8.6,7-15.6,15.6-15.6l0,0l0,0c8.6,0,15.6,7,15.6,15.6c0,0.5,0,1-0.1,1.5c-0.6-0.7-1.4-1.4-2.3-2c0-0.3,0-0.7,0-0.9
					c-0.1-0.5,0.1-1,0-1.5s-0.5-0.9-0.7-1.4s-0.1-1-0.3-1.5s-0.7-0.8-1-1.2s-0.3-1-0.6-1.4s-0.9-0.6-1.2-0.9
					c-0.4-0.4-0.5-0.9-0.9-1.2s-1-0.4-1.4-0.6c-0.4-0.3-0.7-0.8-1.2-1s-1-0.1-1.5-0.3s-0.9-0.6-1.4-0.7c-0.5-0.1-1,0.1-1.5,0
					S38.3,145.9,37.8,145.9L37.8,145.9z"/>
			</g>
			<path fill="#585F63" d="M37.8,163.2c-2.4,0-5.2-0.1-6.7-1.1c-1.1-0.7-1.2-2.2-1.2-2.9c0-1.6,3.8-3.5,7.9-3.6c4,0,7.9,1.9,7.9,3.6
				c0,0.7-0.1,2.2-1.2,2.9C43,163.1,40.2,163.2,37.8,163.2z"/>
			<path fill="#585F63" d="M29.7,162.1c0,0.6-1.1,0.5-2.3,0.3c-1.1-0.1-2.4-0.4-2.6-0.9c-0.3-0.8,1.9-2,3.3-2
				C29.4,159.4,29.7,161.5,29.7,162.1z"/>
			<path fill="#585F63" d="M45.9,162.1c0,0.6,1.1,0.5,2.3,0.3c1.1-0.1,2.4-0.4,2.6-0.9c0.3-0.8-1.9-2-3.3-2
				C46.2,159.4,45.9,161.5,45.9,162.1z"/>
			<path fill="#838F92" d="M37.8,162.7c-2.1,0-4.5-0.1-5.8-1c-0.9-0.6-1-1.9-1-2.5c0-1.4,3.3-3.1,6.8-3.1s6.8,1.7,6.8,3.1
				c0,0.6-0.1,1.9-1,2.5C42.3,162.6,39.9,162.7,37.8,162.7z"/>
			<path fill="#838F92" d="M29.1,161.8c0,0.4-0.8,0.4-1.7,0.2c-0.8-0.1-1.8-0.3-1.9-0.7c-0.2-0.6,1.4-1.5,2.4-1.5
				C28.8,159.8,29.1,161.4,29.1,161.8z"/>
			<path fill="#838F92" d="M46.5,161.8c0,0.4,0.8,0.4,1.7,0.2c0.8-0.1,1.8-0.3,1.9-0.7c0.2-0.6-1.4-1.5-2.4-1.5
				C46.8,159.8,46.5,161.4,46.5,161.8z"/>
			<path fill="#CBDCE4" d="M37.8,161.9c-1.4,0-2.4-1.1-2.4-2.4c0-1.4,1.1-2.4,2.4-2.4c1.4,0,2.4,1.1,2.4,2.4S39.2,161.9,37.8,161.9z
				"/>
		</g>
	</g>
</g>
<g>
	<g>
		<g>
			<path fill="#878787" d="M51.5,124.1c0.1-1.6,1.5-2.9,3.1-2.9c1.7,0,3,1.3,3.1,2.9h0.2h0.2c-0.1-1.8-1.6-3.3-3.5-3.3
				s-3.4,1.5-3.5,3.3h0.3H51.5z"/>
			<path fill="#878787" d="M57.8,124.6c-0.1,1.6-1.5,2.9-3.1,2.9s-3-1.3-3.1-2.9h-0.2h-0.2c0.1,1.8,1.7,3.3,3.5,3.3
				c1.9,0,3.4-1.4,3.5-3.3H58H57.8z"/>
			<path fill="#C6C6C6" d="M54.7,121c1.8,0,3.2,1.4,3.3,3.1h1.1v-1.6c0-0.9-0.7-1.6-1.7-1.6c-0.6,0-1.1-0.5-1.1-1L56,110
				c0-0.4-0.3-0.7-0.7-0.7H54c-0.4,0-0.7,0.3-0.7,0.7l-0.3,9.9c0,0.6-0.5,1-1.1,1c-0.9,0-1.6,0.7-1.6,1.6v1.6h1.1
				C51.5,122.4,52.9,121,54.7,121z"/>
			<path fill="#C6C6C6" d="M54.7,127.7c-1.7,0-3.2-1.4-3.3-3.1h-1.1v2.3c0,0.9,0.7,1.6,1.6,1.6h5.5c0.9,0,1.6-0.7,1.6-1.6v-2.3h-1.1
				C57.9,126.3,56.4,127.7,54.7,127.7z"/>
			<path fill="#9D9D9C" d="M59.1,124.1h-0.8h-0.2h-0.2c-0.1-1.6-1.5-2.9-3.1-2.9c-1.7,0-3,1.3-3.1,2.9h-0.3h-0.2h-0.8h-0.2v0.5h0.2
				h0.9h0.1h0.2c0.1,1.6,1.5,2.9,3.1,2.9s3-1.3,3.1-2.9H58h0.2h0.9h0.2v-0.5H59.1z M54.7,126.9c-1.4,0-2.5-1.1-2.5-2.5
				s1.1-2.5,2.5-2.5s2.5,1.1,2.5,2.5S56.1,126.9,54.7,126.9z"/>
			<g>
				<polygon fill="#DADADA" points="61.1,100.4 61.1,99.4 48.2,99.4 48.2,100.4 60.9,100.4 				"/>
				<polygon fill="#DADADA" points="61.1,101.7 61.1,101.7 61.1,101.3 61.1,101.3 61.1,101.3 48.2,101.3 48.2,101.7 				"/>
				<path fill="#DADADA" d="M61.1,102.6L61.1,102.6H48.2v9.7h0.9c0.6-1.2,2.9-2.1,5.5-2.1c2.7,0,4.9,0.9,5.5,2.1H61L61.1,102.6
					L61.1,102.6z M59.8,107.8c0,0.4-0.4,0.8-0.8,0.8c-2.8,0.5-5.7,0.5-8.5,0c-0.5-0.1-0.8-0.5-0.8-0.8v-3.3c0-0.4,0.4-0.8,0.8-0.8
					c2.8-0.5,5.7-0.5,8.5,0c0.5,0.1,0.8,0.5,0.8,0.8V107.8z"/>
				<path fill="#B2B2B2" d="M58.9,103.7c-2.8-0.5-5.7-0.5-8.5,0c-0.5,0.1-0.8,0.5-0.8,0.8c0,1.1,0,2.2,0,3.3c0,0.4,0.4,0.8,0.8,0.8
					c2.8,0.5,5.7,0.5,8.5,0c0.5-0.1,0.8-0.5,0.8-0.8c0-1.1,0-2.2,0-3.3C59.8,104.2,59.4,103.8,58.9,103.7z M54.7,108.1
					c-1.1,0-1.9-0.9-1.9-1.9c0-1.1,0.9-1.9,1.9-1.9c1.1,0,1.9,0.9,1.9,1.9S55.7,108.1,54.7,108.1z"/>
				<path fill="#878787" d="M54.7,104.3c-1.1,0-1.9,0.9-1.9,1.9c0,1.1,0.9,1.9,1.9,1.9c1.1,0,1.9-0.9,1.9-1.9
					C56.6,105.1,55.7,104.3,54.7,104.3z M54.7,107.4c-0.7,0-1.3-0.6-1.3-1.3s0.6-1.3,1.3-1.3s1.3,0.6,1.3,1.3
					C55.9,106.9,55.4,107.4,54.7,107.4z"/>
			</g>
			<polygon fill="#878787" points="60.9,101.3 60.9,100.4 48.5,100.4 48.5,101.3 			"/>
			<rect x="48.5" y="101.7" fill="#878787" width="12.4" height="0.8"/>
			<path fill="#DADADA" d="M55.6,119.5c0,0.4-0.4,0.8-0.9,0.8l0,0c-0.5,0-0.9-0.4-0.9-0.8v-8.2c0-0.4,0.4-0.8,0.9-0.8l0,0
				c0.5,0,0.9,0.4,0.9,0.8V119.5z"/>
		</g>
	</g>
</g>
</svg>
