<?xml version="1.0" encoding="utf-8"?>
<!-- Generator: Adobe Illustrator 20.1.0, SVG Export Plug-In . SVG Version: 6.00 Build 0)  -->
<svg version="1.1" id="Layer_1" xmlns="http://www.w3.org/2000/svg" xmlns:xlink="http://www.w3.org/1999/xlink" x="0px" y="0px"
	 viewBox="0 0 301.1 248.4" enable-background="new 0 0 301.1 248.4" xml:space="preserve">
<path display="none" opacity="0.56" fill="#E6E6E6" enable-background="new    " d="M28.2,102c0,0-48.8,149.1,79.6,151.1
	s187.1-20.8,187.7-96.6S249.8,9.9,169.2,9.1C88.6,8.3,45,36.8,28.2,102z"/>
<path fill="#0871B8" d="M73.6,36.3c0,0-31,3.9-29.9,46.2S6.3,133.2,6.3,133.2l4.1,9.7c0,0,29.4-4.9,46.2-33.5S73.6,36.3,73.6,36.3z"
	/>
<path opacity="0.44" fill="#FFFFFF" enable-background="new    " d="M73.6,36.3c0,0-31,3.9-29.9,46.2S6.3,133.2,6.3,133.2l4.1,9.7
	c0,0,29.4-4.9,46.2-33.5S73.6,36.3,73.6,36.3z"/>
<ellipse opacity="0.5" fill="#E6E6E6" enable-background="new    " cx="160.5" cy="231.6" rx="140.6" ry="16.8"/>
<path fill="#0971B7" d="M217,144c1.5-4.7,2.5-9.6,2.9-14.6c0.9-12.5-1.8-24.5-7.3-34.8c-2.9-5.4-6.5-10.4-10.8-14.8
	c-1.5-1.6-3.1-3.1-4.8-4.5c-10-8.5-22.7-14-36.8-15c-35.5-2.6-66.5,24.1-69.2,59.6c-2.6,35.5,24.1,66.5,59.6,69.2
	c13.3,1,26.3-2.1,37.8-8.9l35.3,42.6c1.5,1.8,3.6,2.9,5.9,3c2.2,0.2,4.3-0.5,6-1.9c1.3-1,2.1-2.4,2.6-3.8l0.3-4
	c-0.2-1.4-0.8-2.8-1.8-4l-35-42.3C208.8,162.4,213.9,153.6,217,144z M193.8,153c-4.5,6.1-10.4,11-17.2,14.4
	c-7.4,3.7-15.8,5.5-24.7,4.8c-26.2-1.9-46-24.9-44.1-51.1s24.9-46,51.1-44.1c9.3,0.7,17.8,4,24.8,9.2c1.7,1.3,3.4,2.7,4.9,4.2
	c2.6,2.6,5,5.5,7,8.6c5.3,8.4,8.1,18.5,7.3,29.1c-0.4,5.5-1.8,10.8-3.9,15.6C197.7,147,195.9,150.1,193.8,153z"/>
<path fill="#0871B8" d="M55.8,226.8c0,0-1.8,3.4-5.1,3.2s-4.6,2.8-1.8,4.1s10.8-1.4,10.8-1.4l0.6-5.9L55.8,226.8z"/>
<path opacity="0.58" fill="#0871B8" enable-background="new    " d="M268.2,215.6c0,0-10.2-2.8-12.5-12.3c0,0,15.9-3.2,16.3,13.2
	L268.2,215.6z"/>
<path opacity="0.73" fill="#0871B8" enable-background="new    " d="M269.4,214.6c0,0-7.2-11.3-0.9-21.9c0,0,12.1,7.7,6.7,21.9
	H269.4z"/>
<path fill="#0871B8" d="M271.3,214.6c0,0,3.8-11.9,15.2-14.2c0,0,2.1,7.8-7.4,14.2H271.3z"/>
<polygon fill="#24285B" points="263.9,214.3 265.9,228.6 279,228.6 280.9,214.4 "/>
<rect x="174.6" y="30.9" fill="#FFD200" width="97.4" height="40.6"/>
<circle opacity="0.76" fill="#FFFFFF" enable-background="new    " cx="196.7" cy="50.5" r="11.2"/>
<path opacity="0.4" fill="#FFFFFF" enable-background="new    " d="M218.8,47.5h37.1c2,0,3.7,1.6,3.7,3.7l0,0c0,2-1.6,3.7-3.7,3.7
	h-37.1c-2,0-3.7-1.6-3.7-3.7l0,0C215.1,49.1,216.8,47.5,218.8,47.5z"/>
<path fill="#F4A28C" d="M70.1,9.9c0,0-0.6,6.8,0.5,11.3c0.5,1.8,2.3,2.9,4.1,2.5l0,0c2.3-0.6,5.2-2.1,5.9-5.7l2.1-6
	c0.6-2.5-0.5-5.2-2.7-6.6C76.3,2.8,70.3,5.8,70.1,9.9z"/>
<polygon fill="#F4A28C" points="82.4,13.2 85.9,35.2 73.6,36.3 76,19.8 "/>
<path fill="#24285B" d="M71.8,10.2c2.1,0.1,4.2-0.1,6.3-0.5c-1.2,1.9-1.2,4.3,0,6.2s3.5,2.7,5.6,1.9L83.6,9c0.1-2.6-1.3-4.9-3.5-6.2
	c-0.9-0.5-1.9-1-2.9-1.4c-2.5-1-6.2,0.6-8.5-1.1c-0.7-0.5-1.8-0.4-2.3,0.3c-0.2,0.2-0.3,0.5-0.3,0.7c-0.4,2.7,0.1,6.9,3.7,8.3
	C70.4,10,71.1,10.2,71.8,10.2z"/>
<path fill="#F4A28C" d="M77.3,15.8c0,0,0.1-2.6,2-2.4s1.9,4-0.8,4.3L77.3,15.8z"/>
<path fill="#F4A28C" d="M70,14.2l-1.9,2.6c-0.4,0.5-0.2,1.2,0.2,1.5c0.1,0.1,0.3,0.2,0.4,0.2l2.6,0.5L70,14.2z"/>
<path opacity="0.31" fill="#CE8172" enable-background="new    " d="M75.3,23.4c1.5-0.4,2.9-1.2,4-2.4c0,0-0.2,4.1-4.7,8.1
	L75.3,23.4z"/>
<path fill="#0871B8" d="M87.7,35.3l-15.3,1.3c0,0-30.4,8.9-29.2,37.5s4,63.5,4,63.5l40.8,5.3C88.1,142.9,156,50.5,87.7,35.3z"/>
<path opacity="8.000000e-02" enable-background="new    " d="M88.1,54.2c0,0-8.4,6.5-7.4,23.8s5.1,37.1-12.8,35.1s-23-7.7-23-7.7
	l2.3,32.2l40.8,5.3l3.7-5.4C91.8,137.5,118.5,78.4,88.1,54.2z"/>
<path fill="#24285B" d="M47.2,137.6l-11,9.1c-10.1,8.4-11.5,23.4-3.1,33.5c1.9,2.2,4.1,4.1,6.6,5.5l21,11.9l7-5.1L52,179.4
	c-3.5-2.9-4-8.2-1.1-11.7c0.6-0.7,1.2-1.3,2-1.8l5.6-3.5c3.1-2,6.6-3.2,10.3-3.7c6.1-0.8,16.2-3.9,19.2-15.8L47.2,137.6z"/>
<path fill="#0871B8" d="M86.8,59.8c0.7-14,18.7-19.5,26.9-8.1c5.1,7,8.6,17,6.1,30.7c-6.1,34-9.7,60.5-27.8,58.7
	S39.7,99.5,39.7,99.5l10.5-6.9c0,0,21.2,23,34.7,23.2C94.4,116,85.6,83.7,86.8,59.8z"/>
<rect x="30.4" y="72.6" transform="matrix(0.9514 -0.308 0.308 0.9514 -23.6599 15.0604)" fill="#FFD200" width="10.9" height="19.7"/>
<path opacity="0.44" fill="#FFFFFF" enable-background="new    " d="M86.8,59.8c0.7-14,18.7-19.5,26.9-8.1c5.1,7,8.6,17,6.1,30.7
	c-6.1,34-9.7,60.5-27.8,58.7S39.7,99.5,39.7,99.5l10.5-6.9c0,0,21.2,23,34.7,23.2C94.4,116,85.6,83.7,86.8,59.8z"/>
<path fill="#F4A28C" d="M42.1,97.9c0,0-7.5-5.8-5.1-10.1s12,5.6,12,5.6L42.1,97.9z"/>
<path fill="#24285B" d="M88.1,142.9l-27.7,83.8l-7-0.1c0,0,9.4-55.9,8.4-79.4L88.1,142.9z"/>
<path fill="#F4A28C" d="M7.6,136.4c0,0-9.8,4.2-7.2,9.8s10-3.3,10-3.3L7.6,136.4z"/>
<g>
	<path fill="none" d="M188.2,109.4h13.1c-1.1-3.5-2.6-6.9-4.5-10.1c-3.4,2.1-6.7,4.5-9.7,7.2C186,107.6,186.7,109.4,188.2,109.4z"/>
	<path fill="none" d="M170.4,132.2c-12.6,0-22.8,10.2-22.8,22.7c0,0,0,0,0,0.1c0,1.8-1.5,3.3-3.3,3.3h-13c-1.8,0-3.3-1.5-3.3-3.3
		v-13c0-1.8,1.5-3.3,3.3-3.3l0.4-8.1c0.2-5.1,2.8-10,7.1-12.8c6.6-4.2,16.8-6.9,27.6-8L137.1,92l3.3-5.5l35.8,21.7
		c4.9-5.7,10.5-10.5,16.8-14.4c-5.4-6.8-12.8-12.3-21.6-15.3c-24.8-8.6-52.1,4.6-60.7,29.4c-8.6,24.9,4.5,52.1,29.4,60.8
		c19.6,6.8,40.7,0,53-15.4C192.3,141.6,182.4,132.2,170.4,132.2z"/>
	<path fill="none" d="M201.3,109.4c-1.1-3.5-2.6-6.9-4.5-10.1c-1.1-1.9-2.3-3.6-3.7-5.3c-5.4-6.8-12.8-12.3-21.6-15.3
		c-24.8-8.6-52.1,4.6-60.7,29.4c-8.6,24.9,4.5,52.1,29.4,60.8c19.6,6.8,40.7,0,53-15.4c3.3-4.1,5.9-8.8,7.7-14
		C204.3,129.3,204.3,118.9,201.3,109.4z"/>
	<path fill="#2A4B9A" d="M201.3,109.4h-13.1c-1.5,0-2.2-1.8-1.1-2.8c3-2.7,6.2-5.1,9.7-7.3c-1.1-1.9-2.3-3.6-3.7-5.3
		c-6.3,3.9-11.9,8.7-16.8,14.4l-35.8-21.7l-3.3,5.5l29.3,17.8c-10.8,1.1-21,3.8-27.6,8c-4.3,2.8-6.9,7.6-7.2,12.8l-0.4,8.1
		c-1.8,0-3.3,1.5-3.3,3.3v13c0,1.8,1.5,3.3,3.3,3.3h13c1.7,0,3.1-1.4,3.2-3l0.1-0.8c0.7-11.6,9.7-21.4,21.3-22.1
		c12.7-0.8,23.3,8.8,24.2,21.2c3.3-4.1,5.9-8.8,7.7-14C204.3,129.3,204.3,118.9,201.3,109.4z"/>
</g>
<g>
	<path fill="none" d="M201.3,109.4c-1.1-3.5-2.6-6.9-4.5-10.1c-1.1-1.9-2.3-3.6-3.7-5.3c-5.4-6.8-12.8-12.3-21.6-15.3
		c-24.8-8.6-52.1,4.6-60.7,29.4c-8.6,24.9,4.5,52.1,29.4,60.8c8.4,2.9,17,3.3,25.1,1.7c-6.4-2.2-11.1-8.3-11.1-15.4
		c0-9,7.3-16.3,16.3-16.3s16.3,7.3,16.3,16.3c0,2.1-0.4,4.1-1.1,5.9c2.8-2.2,5.3-4.7,7.6-7.6c3.3-4.1,5.9-8.8,7.7-14
		C204.3,129.3,204.3,118.9,201.3,109.4z"/>
	<circle fill="none" cx="170.4" cy="155.1" r="9.8"/>
	<path d="M170.4,138.8c-9,0-16.3,7.3-16.3,16.3c0,7.2,4.7,13.3,11.1,15.4c7.4-1.5,14.4-4.8,20.4-9.5c0.7-1.8,1.1-3.8,1.1-5.9
		C186.7,146.1,179.3,138.8,170.4,138.8z M170.4,164.8c-5.4,0-9.8-4.4-9.8-9.8c0-5.4,4.4-9.8,9.8-9.8c5.4,0,9.8,4.4,9.8,9.8
		C180.1,160.4,175.8,164.8,170.4,164.8z"/>
</g>
<circle fill="#24285B" cx="29.6" cy="76" r="0.6"/>
<circle fill="#24285B" cx="30.2" cy="77.6" r="0.6"/>
</svg>
