<?xml version="1.0" encoding="utf-8"?>
<!-- Generator: Adobe Illustrator 20.1.0, SVG Export Plug-In . SVG Version: 6.00 Build 0)  -->
<svg version="1.1" id="Layer_1" xmlns="http://www.w3.org/2000/svg" xmlns:xlink="http://www.w3.org/1999/xlink" x="0px" y="0px"
	 viewBox="0 0 332.3 221.7" enable-background="new 0 0 332.3 221.7" xml:space="preserve">
<rect x="65.5" opacity="0.47" fill="#E6E6E6" enable-background="new    " width="227.8" height="157.1"/>
<rect x="65.5" y="32.7" opacity="0.3" fill="#CCCCCC" enable-background="new    " width="227.8" height="124.4"/>
<polygon opacity="8.000000e-02" enable-background="new    " points="280.5,101.8 260.1,137.9 279.3,137.9 279.1,157.1 290.5,157.1 
	290,106.1 "/>
<ellipse opacity="0.45" fill="#E6E6E6" enable-background="new    " cx="73.8" cy="216.9" rx="73.8" ry="4.8"/>
<ellipse opacity="0.45" fill="#E6E6E6" enable-background="new    " cx="289" cy="216.6" rx="43.3" ry="4.4"/>
<circle fill="#24285B" cx="83.8" cy="14.4" r="4.4"/>
<circle fill="#0871B8" cx="96.9" cy="14.4" r="4.4"/>
<circle fill="#FFD200" cx="109.1" cy="14.4" r="4.4"/>
<path fill="#0871B8" d="M40.4,208.7c0,0-1.2,3.4-4.3,3.7s-3.9,3.3-1.1,4.1c2.8,0.8,9.9-2.8,9.9-2.8l-0.2-4.5L40.4,208.7z"/>
<path fill="#0871B8" d="M82.8,208.7c0,0,1.2,3.4,4.3,3.7s3.9,3.3,1.1,4.1s-9.9-2.8-9.9-2.8l0.2-4.5L82.8,208.7z"/>
<path fill="#24285B" d="M51.7,143.1l-12,66.3h6l15.1-36c5.3-12.7,14.8-23.4,26.8-30.2l4.4-2.5L51.7,143.1z"/>
<path fill="#24285B" d="M92,140.7l-6.2,68.7h-8c0,0,1.9-51.7-12.6-62.7L92,140.7z"/>
<path opacity="0.58" fill="#0871B8" enable-background="new    " d="M111,205.8c0,0-8.5-2.3-10.4-10.2c0,0,13.2-2.7,13.6,11
	L111,205.8z"/>
<path opacity="0.73" fill="#0871B8" enable-background="new    " d="M112,205c0,0-5.9-9.4-0.7-18.2c0,0,10,6.4,5.6,18.2H112z"/>
<path fill="#0871B8" d="M113.5,205c0,0,3.1-9.9,12.6-11.8c0,0,1.8,6.4-6.1,11.8H113.5z"/>
<polygon fill="#24285B" points="107.4,204.8 109.1,216.6 120,216.6 121.6,204.8 "/>
<rect x="286.2" y="122.1" fill="#E6E6E6" width="7.6" height="76.5"/>
<polygon fill="#FFD200" points="290.7,81.8 260.1,128.7 290.7,128.7 321.3,128.7 "/>
<rect x="279.3" y="192" fill="#24285B" width="22.2" height="25"/>
<rect x="288.3" y="99.2" fill="#24285B" width="4.3" height="14.1"/>
<rect x="288.3" y="116.1" fill="#24285B" width="4.3" height="4.3"/>
<path opacity="8.000000e-02" enable-background="new    " d="M59.8,54.9c0,0,5-4.1,6.6,3.6S65.2,76,70.8,82.6S97,67.5,107.4,104
	l4.2,4.1l14.7-12.4l22.4,8.5l36.8-7.4l9.3-38.7l5-4.6c0,0,18.2,30.9-10.2,57.2c0,0-20.2,17.4-52.8,4.3l-6.4-3.3L110,140.4l-16.9-0.2
	l-15.3-25.1L58.1,76.8l-2.8-21.5L59.8,54.9z"/>
<path fill="#0871B8" d="M74.9,80c0,0,12.7-0.1,17.7,11.9c5,12,5.5,31.2,5.5,31.2l23-15l-26,25.2l-10.4-13.2L74.9,80z"/>
<path opacity="0.3" fill="#FFFFFF" enable-background="new    " d="M74.9,80c0,0,12.7-0.1,17.7,11.9c5,12,5.5,31.2,5.5,31.2l23-15
	l-26,25.2l-10.4-13.2L74.9,80z"/>
<path fill="#F4A28C" d="M57.4,60c1.6,2.4,3,5,3.9,7.8c0.4,1.4-0.5,2.8-1.9,3.2l0,0c-2.2,0.7-4.6,0.1-6.1-1.6l-3.6-3.2
	c-1.3-1.5-1.6-3.6-0.7-5.4C50.6,57.6,55.7,57.3,57.4,60z"/>
<polygon fill="#F4A28C" points="51.3,66.1 53.7,80.4 63.4,80.9 57.8,69.7 "/>
<path fill="#F4A28C" d="M59.1,62.9l2.3,1c0.4,0.2,0.6,0.7,0.4,1.1c-0.1,0.1-0.1,0.2-0.2,0.3L60,66.6L59.1,62.9z"/>
<path opacity="0.31" fill="#CE8172" enable-background="new    " d="M58.6,71.4c-1.2,0.1-2.3-0.2-3.4-0.7c0,0,0.3,3.8,5,3.9
	L58.6,71.4z"/>
<path fill="#0871B8" d="M34.5,91.5c11.2-14.5,36.9-16,49-7.7c11.9,8.2,6.2,56.8,6.2,56.8l-28.8,7.9C60.9,148.5,18.2,116.1,34.5,91.5
	z"/>
<path opacity="8.000000e-02" enable-background="new    " d="M47.6,87.4c0,0,13.8,5.6,12.6,19.8s3,23,25.2,22.2l-3.6,13.3l-20.9,5.8
	l0,0c-7.1-6.9-13.2-14.6-18.4-23l-1.4-2.2l6.6-18.9L47.6,87.4z"/>
<path fill="#24285B" d="M52,70.2l-0.9-0.6c-2.6-1.6-5.4-2.8-8.4-3.4c-0.4-0.1-0.7-0.2-1-0.4c-1.4-0.9-1.8-2.7-0.9-4.1
	c0.1-0.2,0.3-0.4,0.5-0.6c2.1-2.1-1.3-2.7-0.6-4.9c0.6-1.9,2.3-2.1,3.7-0.6s3.8,0.3,2.7-1.4s0.4-3.1,2.8-2.5s2,3.6,3.9,1.2
	s4.5-2.8,5.1-0.2s2.8,5.9-2.2,6.9s-6.3-1.2-6.5,2.1C50.3,64.7,54.6,65.6,52,70.2z"/>
<path fill="#F4A28C" d="M53.1,64.7c0,0-1.9-1.6-3-0.1s1.6,3.8,3.5,2.2L53.1,64.7z"/>
<rect x="92.4" y="99.3" transform="matrix(0.7019 -0.7123 0.7123 0.7019 -41.0714 113.1022)" fill="#24285B" width="44.4" height="12.7"/>
<rect x="92.4" y="99.3" transform="matrix(0.7019 -0.7123 0.7123 0.7019 -41.0714 113.1022)" opacity="0.3" fill="#FFFFFF" enable-background="new    " width="44.4" height="12.7"/>
<rect x="69.9" y="116" transform="matrix(0.7019 -0.7123 0.7123 0.7019 -61.7676 105.1622)" fill="#24285B" width="49.7" height="20.8"/>
<path fill="#FFD200" d="M187.5,31.9c-17.9-17.6-46.6-17.4-64.2,0.5s-17.4,46.6,0.5,64.2s46.6,17.4,64.2-0.5l0,0
	C205.6,78.3,205.3,49.5,187.5,31.9z M131.8,88.4c-13.3-13.2-13.5-34.6-0.3-48s34.6-13.5,48-0.3c13.3,13.1,13.5,34.6,0.3,47.9
	C166.6,101.4,145.2,101.6,131.8,88.4L131.8,88.4z"/>
<path fill="#F4A28C" d="M89.6,135.9l0.9,4.7c0,0,8.4,1.4,9.9-3.9S91.2,133.2,89.6,135.9z"/>
<path fill="#0871B8" d="M49.5,88.5c-4-2.9-9.6-2.3-13,1.3c-7.7,8.1-17.2,31.1-5.7,46.3c14.4,19,34,12.4,59.7,4.5l-1.2-6.1
	c0,0-47.8,6.4-42.6-14.2C50.9,104,56.5,93.7,49.5,88.5z"/>
<path opacity="0.3" fill="#FFFFFF" enable-background="new    " d="M49.5,88.5c-4-2.9-9.6-2.3-13,1.3c-7.7,8.1-17.2,31.1-5.7,46.3
	c14.4,19,34,12.4,59.7,4.5l-1.2-6.1c0,0-47.8,6.4-42.6-14.2C50.9,104,56.5,93.7,49.5,88.5z"/>
<path fill="#F4A28C" d="M121.1,108.1c0.2,0.3,9-1.5,6.1-6.2S119.1,105.1,121.1,108.1z"/>
</svg>
