<?xml version="1.0" encoding="utf-8"?>
<!-- Generator: Adobe Illustrator 20.1.0, SVG Export Plug-In . SVG Version: 6.00 Build 0)  -->
<svg version="1.1" id="Layer_1" xmlns="http://www.w3.org/2000/svg" xmlns:xlink="http://www.w3.org/1999/xlink" x="0px" y="0px"
	 viewBox="0 0 327.6 232.7" enable-background="new 0 0 327.6 232.7" xml:space="preserve">
<path fill="#0871B8" d="M170.6,88.3c0,0,30.8,41.5,58.2,37.5s45.7-47,45.7-47l-11-7c0,0-39.2,58.3-73.7-7L170.6,88.3z"/>
<path opacity="8.000000e-02" enable-background="new    " d="M170.6,88.3c0,0,30.8,41.5,58.2,37.5s45.7-47,45.7-47l-11-7
	c0,0-39.2,58.3-73.7-7L170.6,88.3z"/>
<rect x="262.8" y="5" transform="matrix(3.259898e-02 -0.9995 0.9995 3.259898e-02 253.9728 274.7458)" fill="#C9C9C9" width="12.3" height="2.3"/>
<rect x="275.2" y="43.9" transform="matrix(0.9912 -0.1324 0.1324 0.9912 -4.2537 37.1863)" fill="#FFD200" width="4.6" height="13.3"/>
<rect x="275.2" y="43.9" transform="matrix(0.9912 -0.1324 0.1324 0.9912 -4.2537 37.1863)" opacity="8.000000e-02" enable-background="new    " width="4.6" height="13.3"/>
<rect x="275.6" y="53.4" transform="matrix(0.9912 -0.1324 0.1324 0.9912 -5.7424 37.4981)" fill="#24285B" width="7" height="17"/>
<path fill="#0871B8" d="M194.7,69.7c0,0,8.6,5.2,10.9,13.9s1.8,30.9-16.1,42s-37.1,16-34.1,29l-10.2-5l12.8-27.5l29.1-16.5
	L194.7,69.7z"/>
<ellipse opacity="0.45" fill="#E6E6E6" enable-background="new    " cx="163.8" cy="212" rx="163.8" ry="20.7"/>
<path fill="#0871B8" d="M181,201.9c0,0,3.6,3,7.1,1.3s6.4,1.1,3.8,3.8s-12.8,3.3-12.8,3.3l-2.9-5.6L181,201.9z"/>
<path fill="#0871B8" d="M65.1,178.9c0,0-4.6-0.2-6.4,3.4s-5.8,3.1-5.4-0.6s8-10.5,8-10.5l5.7,2.6L65.1,178.9z"/>
<path fill="#F4A28C" d="M206.4,49.2c0,0,1,6.8,0.1,11.4c-0.3,1.9-2.1,3.1-4,2.8c0,0,0,0-0.1,0c-2.3-0.5-5.3-1.8-6.3-5.4l-2.4-5.9
	c-0.7-2.5,0.2-5.2,2.4-6.7C199.8,42.4,206,45.1,206.4,49.2z"/>
<polygon fill="#F4A28C" points="198.5,51.9 180.6,65.6 188.9,74.9 198.3,61.6 "/>
<path fill="#24285B" d="M204.7,49.6c-2.1,0.2-4.2,0.2-6.4-0.1c1.4,1.8,1.5,4.3,0.3,6.3c-1.1,1.9-3.4,2.9-5.5,2.2l-0.4-8.8
	c-0.2-2.6,1-5,3.2-6.4c0.9-0.6,1.9-1.1,2.9-1.6c2.5-1.2,6.3,0.3,8.5-1.5c0.7-0.6,1.8-0.5,2.3,0.2c0.2,0.2,0.3,0.5,0.3,0.7
	c0.5,2.7,0.3,6.9-3.2,8.6C206.1,49.4,205.4,49.5,204.7,49.6z"/>
<path fill="#F4A28C" d="M199.4,55.5c0,0-0.2-2.6-2.2-2.3s-1.7,4.1,1,4.3L199.4,55.5z"/>
<path fill="#F4A28C" d="M206.8,53.6l2.1,2.5c0.4,0.5,0.3,1.2-0.2,1.5c-0.1,0.1-0.3,0.2-0.4,0.2l-2.6,0.6L206.8,53.6z"/>
<path opacity="0.31" fill="#CE8172" enable-background="new    " d="M198,61.9c-0.8-1.3-1.2-2.8-1.2-4.3c0,0-4.2,2.6-1.4,8.2
	L198,61.9z"/>
<path fill="#FFFFFF" d="M191.5,71.2c0,0-4.7-9.4-23.7-9.5s-65.5,24.8-62.3,78.9l39.7,9c0,0,7.3-18.2,30.7-26
	C199.9,115.6,203.3,79.1,191.5,71.2z"/>
<path fill="#0871B8" d="M183.5,63.4c0,0-44-25.8-78.2-21.8S52.8,85.1,52.8,85.1l9.9,7c0,0,34-39.4,55.5-25.5S176.9,109.3,183.5,63.4
	z"/>
<path fill="#0871B8" d="M133.9,71.6c0,0-38,19.5-36.5,67.2l24,8.2c0,0,3.2-48.8,48.5-53.5c0,0,16.7-9.2,18.3-24.3
	c0,0,2.3-5.6-14.8-11.1L133.9,71.6z"/>
<polygon fill="#FFFFFF" points="192.1,67.1 191.2,72.8 194.4,72.8 194.7,66.6 "/>
<path opacity="8.000000e-02" enable-background="new    " d="M187.3,83.4c0,0-8.8,32.1-33.5,35.1s-53.6-3.2-53.6-3.2
	c1.6-6.2,4.2-12.2,7.6-17.7c5.6-9.3,32.1-0.3,32.1-0.3L187.3,83.4z"/>
<path fill="#FFD200" d="M188.4,67c0,0-2.4,6.3,0,7.3c1.2,0.5,2.7-0.3,3.9-1.1c1.2-0.9,1.7-2.6,1-4l-1-2.2L188.4,67z"/>
<path fill="#FFD200" d="M191.2,71.2c0,0,1.7,18.4-24.6,32.9s-54.9,0-54.9,0l-8.6-13.7l18.2-3.8c0,0,42.1,17.8,66.4-16.6L191.2,71.2z
	"/>
<path fill="#24285B" d="M100.7,140c0,0-6.2,14.3,7.1,21.6c7.9,4.3,21.7,6.6,31.8,7.7c7.9,0.9,14.9,5.3,19.1,12l15.7,24.8l9.1-5.8
	l-8.7-22.4c-4.7-12.1-14.1-21.8-26-26.9l-3.6-1.5L100.7,140z"/>
<path fill="#24285B" d="M130.8,160.4c0,0,0.7,24.3-20.3,28s-47.3-8.7-47.3-8.7l4.7-8.3c0,0,43.3,13.3,40.3-13.7L130.8,160.4z"/>
<polygon fill="#FFFFFF" points="183.5,62.5 187,60.7 192.1,67.1 188.2,72.1 "/>
<polygon opacity="0.26" fill="#0871B8" enable-background="new    " points="52.8,85.1 51,89.1 60.3,96.1 62.7,92.1 "/>
<path fill="#0871B8" d="M63.7,113.5l-2.9-0.5l1.2-6.8c0.4-2.4-1.2-4.8-3.7-5.2l-10.7-1.8c-2.4-0.4-4.8,1.2-5.2,3.7l-1.2,6.8l-3-0.5
	l1.2-6.8c0.7-4.1,4.6-6.8,8.7-6.1l10.7,1.9c4.1,0.7,6.8,4.6,6.1,8.7l0,0L63.7,113.5z"/>
<path opacity="0.3" fill="#FFFFFF" enable-background="new    " d="M63.7,113.5l-2.9-0.5l1.2-6.8c0.4-2.4-1.2-4.8-3.7-5.2l-10.7-1.8
	c-2.4-0.4-4.8,1.2-5.2,3.7l-1.2,6.8l-3-0.5l1.2-6.8c0.7-4.1,4.6-6.8,8.7-6.1l10.7,1.9c4.1,0.7,6.8,4.6,6.1,8.7l0,0L63.7,113.5z"/>
<path fill="#F4A28C" d="M52,89.8c0,0-9.5,10.1-2.8,12.8c6.6,2.6,9.3,2.6,11.2-6.5L52,89.8z"/>
<path fill="#0871B8" d="M25,103.6l52.4,9.2c0.7,0.1,1.2,0.8,1,1.5l-6.2,35.3c-0.1,0.7-0.8,1.2-1.5,1l-52.3-9.2
	c-0.7-0.1-1.2-0.8-1-1.5l6.2-35.3C23.6,103.9,24.3,103.5,25,103.6z"/>
<path opacity="8.000000e-02" enable-background="new    " d="M72.1,113.6c1.1,7.3,1.5,33.7-52.5,21.3c-0.7-0.2-1.5,0.3-1.6,1
	l-0.7,4.1c-0.1,0.7,0.3,1.4,1.1,1.5l50.5,8.8c1.7,0.3,3.3-0.8,3.6-2.5l5.9-33.5c0.1-0.7-0.4-1.4-1.1-1.5l-3.7-0.6
	C72.8,111.9,72,112.7,72.1,113.6z"/>
<polygon opacity="0.4" fill="#0871B8" enable-background="new    " points="265.2,72.9 266.8,69.5 275.4,75.7 274.4,78.8 "/>
<path fill="#F4A28C" d="M268.3,70.6c0,0,7.6-9.5,13.6-6.7s4.5,7.6-6.5,11.8L268.3,70.6z"/>
<rect x="248.3" y="14" transform="matrix(7.020231e-02 -0.9975 0.9975 7.020231e-02 211.8322 267.5804)" fill="#C9C9C9" width="2.3" height="12.3"/>
<rect x="254.1" y="2.3" transform="matrix(0.7275 -0.6861 0.6861 0.7275 63.7682 177.4184)" fill="#C9C9C9" width="2.3" height="12.3"/>
<path fill="#FFD200" d="M272.4,16.5c-8.2,1.1-13.9,8.6-12.8,16.8s8.6,13.9,16.8,12.8c8.2-1.1,13.9-8.6,12.8-16.8
	C288.1,21.2,280.6,15.4,272.4,16.5C272.5,16.5,272.4,16.5,272.4,16.5z M275.8,41.8c-5.8,0.8-11.1-3.3-11.9-9
	c-0.8-5.8,3.3-11.1,9-11.9c5.8-0.8,11.1,3.3,11.9,9l0,0C285.6,35.7,281.6,41,275.8,41.8L275.8,41.8z"/>
</svg>
